<svg version="1.1" xmlns="http://www.w3.org/2000/svg" xmlns:xlink="http://www.w3.org/1999/xlink" width="20.13616" height="108.4208" viewBox="0,0,20.13616,108.4208"><g transform="translate(-229.86422,-88.37508)"><g data-paper-data="{&quot;isPaintingLayer&quot;:true}" stroke="none" stroke-linejoin="miter" stroke-miterlimit="10" stroke-dasharray="" stroke-dashoffset="0" style="mix-blend-mode: normal"><path d="M238.86078,176.62245l-0.00495,1.16582l0.4138,0.71672v1.32324h-2.20993l-0.01361,-1.22774l0.49109,-0.8185l-0.02731,-1.13225z" fill="#657a83" fill-rule="evenodd" stroke-width="0.5" stroke-linecap="butt"/><path d="M242.85741,176.64975l-0.02731,1.13225l0.49109,0.8185l-0.01361,1.22774h-2.20993v-1.32324l0.4138,-0.71672l-0.00495,-1.16582z" fill="#657a83" fill-rule="evenodd" stroke-width="0.5" stroke-linecap="butt"/><path d="M240.1069,88.45948l0.0358,-0.0844v0.16839l0.33806,0.80016v4.27664l0.83512,1.06405h-0.83512v1.39826l0.60023,3.38312l1.63699,2.94658v9.76737l1.20046,7.58473v11.64138l0.59,2.16048v41.82551l-1.46604,1.42767l-2.93507,-0.11467l-2.93507,0.11467l-1.46647,-1.42767v-41.82551l0.59,-2.16048v-11.64138l1.20046,-7.58473v-9.76737l1.63699,-2.94658l0.60023,-3.38312v-1.39826h-0.66162l0.66162,-0.9579v-4.38279l0.33805,-0.80016v-0.16839z" fill="#94a5b0" fill-rule="evenodd" stroke-width="0.5" stroke-linecap="butt"/><path d="M234.24064,129.01993l0.00165,-0.0066l1.7751,4.86152v42.98291l0.69444,1.31172h-0.69444v1.92943h-1.54618h-0.46041h-1.54576v-1.92943h-0.69487l0.69487,-1.31172v-42.98291l1.77468,-4.86152z" fill="#c8d2d8" fill-rule="evenodd" stroke-width="0.5" stroke-linecap="butt"/><path d="M246.24525,129.01993l0.00165,-0.0066l1.7751,4.86152v42.98291l0.69444,1.31172h-0.69444v1.92943h-1.54618h-0.46041h-1.54576v-1.92943h-0.69487l0.69487,-1.31172v-42.98291l1.77468,-4.86152z" fill="#c8d2d8" fill-rule="evenodd" stroke-width="0.5" stroke-linecap="butt"/><path d="M237.94197,185.06135c0.48969,4.65685 -3.93269,11.73453 -3.93269,11.73453c0,0 -4.37206,-6.779 -4.13582,-11.42832c0.16962,-3.33815 3.81201,-4.65564 3.81201,-4.65564c0,0 3.82125,0.2103 4.2565,4.34941z" fill="#ffffff" fill-rule="nonzero" stroke-width="0" stroke-linecap="round"/><path d="M233.96975,181.86867c0,0 1.96743,1.02438 2.22391,3.46351c0.28857,2.74421 -2.05887,8.43495 -2.05887,8.43495c0,0 -2.30672,-5.93412 -2.16752,-8.6739c0.09995,-1.96714 2.00247,-3.22455 2.00247,-3.22455z" fill="#ffee80" fill-rule="nonzero" stroke-width="0" stroke-linecap="round"/><path d="M249.96252,184.94251c0.48969,4.65685 -3.93269,11.73453 -3.93269,11.73453c0,0 -4.37206,-6.779 -4.13582,-11.42832c0.16962,-3.33815 3.81201,-4.65564 3.81201,-4.65564c0,0 3.82125,0.2103 4.25649,4.34941z" fill="#ffffff" fill-rule="nonzero" stroke-width="0" stroke-linecap="round"/><path d="M245.9903,181.74985c0,0 1.96743,1.02438 2.22392,3.46351c0.28857,2.74421 -2.05887,8.43495 -2.05887,8.43495c0,0 -2.30672,-5.93412 -2.16752,-8.6739c0.09995,-1.96714 2.00247,-3.22455 2.00247,-3.22455z" fill="#ffee80" fill-rule="nonzero" stroke-width="0" stroke-linecap="round"/></g></g></svg>