<svg version="1.1" xmlns="http://www.w3.org/2000/svg" xmlns:xlink="http://www.w3.org/1999/xlink" width="28.85424" height="41.87663" viewBox="0,0,28.85424,41.87663"><g transform="translate(-225.62922,-180.5931)"><g data-paper-data="{&quot;isPaintingLayer&quot;:true}" fill-rule="nonzero" stroke="none" stroke-width="0" stroke-linecap="round" stroke-linejoin="miter" stroke-miterlimit="10" stroke-dasharray="" stroke-dashoffset="0" style="mix-blend-mode: normal"><path d="M237.20428,192.10467c0.70171,12.05038 -5.63537,30.36506 -5.63537,30.36506c0,0 -6.26497,-17.54179 -5.92645,-29.57268c0.24305,-8.63803 5.46244,-12.04721 5.46244,-12.04721c0,0 5.47568,0.54416 6.09938,11.25484z" fill="#ffffff"/><path d="M231.51226,183.3485c0,0 2.81924,2.21276 3.18677,7.48152c0.4135,5.92779 -2.95027,18.22036 -2.95027,18.22036c0,0 -3.30543,-12.81833 -3.10595,-18.73653c0.14323,-4.2492 2.86944,-6.96534 2.86944,-6.96534z" fill="#ffde00"/><path d="M254.42921,189.98828c0.70171,10.05927 -5.63537,25.34778 -5.63537,25.34778c0,0 -6.26497,-14.64333 -5.92645,-24.68633c0.24305,-7.21075 5.46244,-10.05663 5.46244,-10.05663c0,0 5.47568,0.45425 6.09937,9.39518z" fill="#ffffff"/><path d="M248.73719,183.09178c0,0 2.81924,2.21276 3.18678,7.48152c0.4135,5.92779 -2.95027,18.22036 -2.95027,18.22036c0,0 -3.30543,-12.81833 -3.10595,-18.73653c0.14323,-4.2492 2.86944,-6.96534 2.86944,-6.96534z" fill="#ffde00"/></g></g></svg>