<svg version="1.1" xmlns="http://www.w3.org/2000/svg" xmlns:xlink="http://www.w3.org/1999/xlink" width="24.01993" height="105.39991" viewBox="0,0,24.01993,105.39991"><g transform="translate(-240.69806,-232.03317)"><g fill="none" fill-rule="evenodd" stroke="#000000" stroke-width="2" stroke-miterlimit="10"><g><path d="M263.99268,253.56771l-22.49022,-19.94783"/><path d="M241.50246,253.56771l22.49022,-19.94783"/><path d="M241.50246,253.5332l22.49022,19.94783"/><path d="M263.99268,253.5332l-22.49022,19.94783"/><path d="M241.50246,272.89338l22.49022,19.94783"/><path d="M263.99268,272.89338l-22.49022,19.94783"/><path d="M263.99268,313.30764l-22.49022,-19.94783"/><path d="M241.50246,313.30764l22.49022,-19.94783"/><path d="M263.99268,336.74118l-22.49022,-23.46804"/><path d="M263.99268,313.27314l-22.09908,22.88133"/><path d="M253.04093,336.29254v-103.45493"/><path d="M241.50246,264.07757l22.49022,-19.94783"/><path d="M263.99268,283.99089l-22.49022,-19.94783"/><path d="M263.99268,264.04305l-22.49022,19.94783"/><path d="M263.99268,303.35107l-22.49022,-19.94783"/><path d="M241.50246,303.35107l22.49022,-19.94783"/><path d="M263.99268,323.81751l-22.49022,-19.94783"/><path d="M263.99268,303.86967l-22.49022,19.94783"/><path d="M253.23649,335.51702l-11.73403,-11.73402"/><path d="M253.04091,335.32145l10.95177,-11.53845"/><path d="M263.99268,263.52432l-22.49022,-19.94783"/><path d="M263.99268,244.16406l-10.56063,-10.56061"/><path d="M252.45423,233.2124l-10.95177,10.95174"/><path d="M241.69806,336.29255v-103.25937h21.90351v103.25937z"/></g></g></g></svg>