<svg version="1.1" xmlns="http://www.w3.org/2000/svg" xmlns:xlink="http://www.w3.org/1999/xlink" width="255.25525" height="191.04508" viewBox="0,0,255.25525,191.04508"><g transform="translate(-112.37237,-84.47746)"><g stroke="none" stroke-width="0" stroke-miterlimit="10"><path d="M112.37237,275.52254v-191.04508h255.25525v191.04508z" fill="#ffffff"/><path d="M171.00001,180c0,-38.10765 30.89235,-69 69,-69c38.10765,0 69,30.89235 69,69c0,38.10765 -30.89235,69 -69,69c-38.10765,0 -69,-30.89235 -69,-69z" fill="#828282"/><path d="M226.37304,262.3798v-164.75961h27.25394v164.75961z" fill="#828282"/><path d="M322.3798,193.62697h-164.75961v-27.25394h164.75961z" fill="#828282"/><path d="M172.11297,228.6156l116.50264,-116.50264l19.27145,19.27144l-116.50264,116.50264z" fill="#828282"/><path d="M288.61561,247.88704l-116.50263,-116.50264l19.27145,-19.27144l116.50264,116.50264z" fill="#828282"/><path d="M201.12176,180c0,-21.47186 17.40638,-38.87824 38.87824,-38.87824c21.47186,0 38.87824,17.40638 38.87824,38.87824c0,21.47186 -17.40638,38.87824 -38.87824,38.87824c-21.47186,0 -38.87824,-17.40638 -38.87824,-38.87824z" fill="#ffffff"/></g></g></svg>