<svg version="1.1" xmlns="http://www.w3.org/2000/svg" xmlns:xlink="http://www.w3.org/1999/xlink" width="28.85424" height="24.75298" viewBox="0,0,28.85424,24.75298"><g transform="translate(-225.62922,-180.59308)"><g data-paper-data="{&quot;isPaintingLayer&quot;:true}" fill-rule="nonzero" stroke="none" stroke-width="0" stroke-linecap="round" stroke-linejoin="miter" stroke-miterlimit="10" stroke-dasharray="" stroke-dashoffset="0" style="mix-blend-mode: normal"><path d="M237.20428,186.42646c0.70171,6.04987 -5.63537,15.24471 -5.63537,15.24471c0,0 -6.26497,-8.80682 -5.92645,-14.84691c0.24305,-4.33671 5.46244,-6.04828 5.46244,-6.04828c0,0 5.47568,0.2732 6.09938,5.65047z" fill="#ffffff"/><path d="M231.51226,182.5562c0,0 2.81924,1.28769 3.18677,4.3538c0.4135,3.44962 -2.95027,10.60316 -2.95027,10.60316c0,0 -3.30543,-7.45951 -3.10595,-10.90354c0.14323,-2.47278 2.86944,-4.05342 2.86944,-4.05342z" fill="#ffde00"/><path d="M254.42921,187.28678c0.70171,7.16683 -5.63537,18.05928 -5.63537,18.05928c0,0 -6.26497,-10.43279 -5.92645,-17.58803c0.24305,-5.13738 5.46244,-7.16495 5.46244,-7.16495c0,0 5.47568,0.32364 6.09937,6.69369z" fill="#ffffff"/><path d="M248.73719,182.37331c0,0 2.81924,1.5765 3.18678,5.33029c0.4135,4.22331 -2.95027,12.98128 -2.95027,12.98128c0,0 -3.30543,-9.13255 -3.10595,-13.34903c0.14323,-3.02739 2.86944,-4.96253 2.86944,-4.96253z" fill="#ffde00"/></g></g></svg>