<svg viewBox="0,0,58.86336,58.86336" height="58.86336" width="58.86336" xmlns:xlink="http://www.w3.org/1999/xlink" xmlns="http://www.w3.org/2000/svg" version="1.1"><g transform="translate(-210.56832,-150.56832)"><g style="mix-blend-mode: normal" stroke-dashoffset="0" stroke-dasharray="" stroke-miterlimit="10" stroke-linejoin="miter" stroke-linecap="butt" stroke="none" fill-rule="nonzero" data-paper-data="{&quot;isPaintingLayer&quot;:true}"><path stroke-width="0" fill="#828282" d="M210.56832,180c0,-16.25467 13.17701,-29.43168 29.43168,-29.43168c16.25467,0 29.43168,13.17701 29.43168,29.43168c0,16.25467 -13.17701,29.43168 -29.43168,29.43168c-16.25467,0 -29.43168,-13.17701 -29.43168,-29.43168z"></path><path stroke-width="0" fill="#ababab" d="M213.25725,180.11427c0,-15.20807 10.71145,-28.20017 26.33067,-28.20017c15.61921,0 28.28109,12.32857 28.28109,27.53664c0,15.20807 -11.36159,-4.31297 -26.98081,-4.31297c-15.61921,0 -27.63095,20.18457 -27.63095,4.97651z"></path><path stroke-width="0" fill="#ff3737" d="M215.84381,180c0,-13.34109 10.8151,-24.15619 24.15619,-24.15619c13.34109,0 24.15619,10.8151 24.15619,24.15619c0,13.34109 -10.81509,24.15619 -24.15619,24.15619c-13.34109,0 -24.15619,-10.8151 -24.15619,-24.15619z"></path><path stroke-width="0" fill="#ff5f5f" d="M220.84381,173.06074c0,-7.05391 8.7018,-12.77224 19.43601,-12.77224c10.73422,0 19.43602,5.71833 19.43602,12.77224c0,7.05391 -8.7018,12.77223 -19.43602,12.77223c-10.73422,0 -19.43601,-5.71832 -19.43601,-12.77223z"></path><text style="mix-blend-mode: normal" text-anchor="start" font-weight="normal" font-family="Pixel" stroke-dashoffset="0" stroke-dasharray="" stroke-miterlimit="10" stroke-linejoin="miter" stroke-linecap="butt" stroke-width="1" stroke="none" fill-rule="nonzero" fill="#ffffff" xml:space="preserve" font-size="40" transform="translate(225.0119,190.07101) scale(0.55297,0.55297)"><tspan dy="0" x="0">OK</tspan></text></g></g></svg>