<svg version="1.1" xmlns="http://www.w3.org/2000/svg" xmlns:xlink="http://www.w3.org/1999/xlink" width="28.85424" height="29.29686" viewBox="0,0,28.85424,29.29686"><g transform="translate(-225.62922,-180.5931)"><g data-paper-data="{&quot;isPaintingLayer&quot;:true}" fill-rule="nonzero" stroke="none" stroke-width="0" stroke-linecap="round" stroke-linejoin="miter" stroke-miterlimit="10" stroke-dasharray="" stroke-dashoffset="0" style="mix-blend-mode: normal"><path d="M237.20428,188.67232c0.70171,8.42022 -5.63537,21.21763 -5.63537,21.21763c0,0 -6.26497,-12.25736 -5.92645,-20.66396c0.24305,-6.03584 5.46244,-8.41801 5.46244,-8.41801c0,0 5.47568,0.38024 6.09938,7.86433z" fill="#ffffff"/><path d="M231.51226,182.89953c0,0 2.81924,1.85221 3.18677,6.26249c0.4135,4.96192 -2.95027,15.25155 -2.95027,15.25155c0,0 -3.30543,-10.72972 -3.10595,-15.68361c0.14323,-3.55684 2.86944,-5.83042 2.86944,-5.83042z" fill="#ffde00"/><path d="M254.42921,188.45743c0.70171,8.42022 -5.63537,21.21763 -5.63537,21.21763c0,0 -6.26497,-12.25736 -5.92645,-20.66396c0.24305,-6.03584 5.46244,-8.41801 5.46244,-8.41801c0,0 5.47568,0.38024 6.09937,7.86433z" fill="#ffffff"/><path d="M248.73719,182.68464c0,0 2.81924,1.85221 3.18678,6.26249c0.4135,4.96192 -2.95027,15.25155 -2.95027,15.25155c0,0 -3.30543,-10.72972 -3.10595,-15.68361c0.14323,-3.55684 2.86944,-5.83042 2.86944,-5.83042z" fill="#ffde00"/></g></g></svg>