<svg version="1.1" xmlns="http://www.w3.org/2000/svg" xmlns:xlink="http://www.w3.org/1999/xlink" width="28.85424" height="32.31601" viewBox="0,0,28.85424,32.31601"><g transform="translate(-225.62922,-180.5931)"><g data-paper-data="{&quot;isPaintingLayer&quot;:true}" fill-rule="nonzero" stroke="none" stroke-width="0" stroke-linecap="round" stroke-linejoin="miter" stroke-miterlimit="10" stroke-dasharray="" stroke-dashoffset="0" style="mix-blend-mode: normal"><path d="M237.20428,189.50492c0.70171,9.28795 -5.63537,23.40418 -5.63537,23.40418c0,0 -6.26497,-13.52052 -5.92645,-22.79345c0.24305,-6.65785 5.46244,-9.28551 5.46244,-9.28551c0,0 5.47568,0.41942 6.09938,8.67478z" fill="#ffffff"/><path d="M231.51226,183.13722c0,0 2.81924,2.04309 3.18677,6.90786c0.4135,5.47326 -2.95027,16.82327 -2.95027,16.82327c0,0 -3.30543,-11.83545 -3.10595,-17.29986c0.14323,-3.92338 2.86944,-6.43126 2.86944,-6.43126z" fill="#ffde00"/><path d="M254.42921,189.26788c0.70171,9.28795 -5.63537,23.40418 -5.63537,23.40418c0,0 -6.26497,-13.52052 -5.92645,-22.79345c0.24305,-6.65785 5.46244,-9.28551 5.46244,-9.28551c0,0 5.47568,0.41942 6.09937,8.67478z" fill="#ffffff"/><path d="M248.73719,182.90018c0,0 2.81924,2.04309 3.18678,6.90786c0.4135,5.47326 -2.95027,16.82327 -2.95027,16.82327c0,0 -3.30543,-11.83545 -3.10595,-17.29986c0.14323,-3.92338 2.86944,-6.43126 2.86944,-6.43126z" fill="#ffde00"/></g></g></svg>