<svg version="1.1" xmlns="http://www.w3.org/2000/svg" xmlns:xlink="http://www.w3.org/1999/xlink" width="8.80265" height="91.45316" viewBox="0,0,8.80265,91.45316"><g transform="translate(-235.70579,-88.37508)"><g fill-rule="evenodd" stroke="none" stroke-width="0.5" stroke-miterlimit="10"><path d="M238.86078,176.62245l-0.00495,1.16582l0.4138,0.71672v1.32324h-2.20993l-0.01361,-1.22774l0.49109,-0.8185l-0.02731,-1.13225z" fill="#657a83"/><path d="M242.85741,176.64975l-0.02731,1.13225l0.49109,0.8185l-0.01361,1.22774h-2.20993v-1.32324l0.4138,-0.71672l-0.00495,-1.16582z" fill="#657a83"/><path d="M240.1069,88.45948l0.0358,-0.0844v0.16839l0.33806,0.80016v4.27664l0.83512,1.06405h-0.83512v1.39826l0.60023,3.38312l1.63699,2.94658v9.76737l1.20046,7.58473v11.64138l0.59,2.16048v41.82551l-1.46604,1.42767l-2.93507,-0.11467l-2.93507,0.11467l-1.46647,-1.42767v-41.82551l0.59,-2.16048v-11.64138l1.20046,-7.58473v-9.76737l1.63699,-2.94658l0.60023,-3.38312v-1.39826h-0.66162l0.66162,-0.9579v-4.38279l0.33805,-0.80016v-0.16839z" fill="#94a5b0"/></g></g></svg>