<svg version="1.1" xmlns="http://www.w3.org/2000/svg" xmlns:xlink="http://www.w3.org/1999/xlink" width="484.20129" height="363.15097" viewBox="0,0,484.20129,363.15097"><defs><linearGradient x1="241.12599" y1="134.8523" x2="241.12599" y2="232.50454" gradientUnits="userSpaceOnUse" id="color-1"><stop offset="0" stop-color="#062c4e"/><stop offset="1" stop-color="#72353f"/></linearGradient></defs><g transform="translate(0.97466,0.73099)"><g fill-rule="evenodd" stroke="none" stroke-miterlimit="10"><path d="M-0.97466,232.50454v-233.23553h484.20129v233.23553z" fill="url(#color-1)" stroke-width="0.5"/><path d="M-0.97466,341.44611v-118.0722h484.20129v118.0722z" fill="#031423" stroke-width="0.52053"/><path d="M-0.97466,362.41999v-60.91788h484.20129v60.91788z" fill="#47555c" stroke-width="0.5"/><g fill="#ffffff" stroke-width="0.5"><path d="M263.27383,43.04978c0,-0.64319 0.52141,-1.16461 1.16461,-1.16461c0.64319,0 1.16461,0.52141 1.16461,1.16461c0,0.64319 -0.52141,1.16461 -1.16461,1.16461c-0.64319,0 -1.16461,-0.52141 -1.16461,-1.16461z"/><path d="M105.14591,71.1729c0,-0.64319 0.52141,-1.16461 1.16461,-1.16461c0.64319,0 1.16461,0.52141 1.16461,1.16461c0,0.64319 -0.52141,1.16461 -1.16461,1.16461c-0.64319,0 -1.16461,-0.52141 -1.16461,-1.16461z"/><path d="M272.92166,104.27152c0,-0.64319 0.52141,-1.16461 1.16461,-1.16461c0.64319,0 1.16461,0.52141 1.16461,1.16461c0,0.64319 -0.52141,1.16461 -1.16461,1.16461c-0.64319,0 -1.16461,-0.52141 -1.16461,-1.16461z"/><path d="M417.87077,62.04226c0,-0.64319 0.52141,-1.16461 1.16461,-1.16461c0.64319,0 1.16461,0.52141 1.16461,1.16461c0,0.64319 -0.52141,1.16461 -1.16461,1.16461c-0.64319,0 -1.16461,-0.52141 -1.16461,-1.16461z"/><path d="M186.18045,66.60756c0,-0.64319 0.52141,-1.16461 1.16461,-1.16461c0.64319,0 1.16461,0.52141 1.16461,1.16461c0,0.64319 -0.52141,1.16461 -1.16461,1.16461c-0.64319,0 -1.16461,-0.52141 -1.16461,-1.16461z"/><path d="M191.88711,123.67415c0,-0.64319 0.52141,-1.16461 1.16461,-1.16461c0.64319,0 1.16461,0.52141 1.16461,1.16461c0,0.64319 -0.52141,1.16461 -1.16461,1.16461c-0.64319,0 -1.16461,-0.52141 -1.16461,-1.16461z"/><path d="M122.26589,139.6528c0,-0.64319 0.52141,-1.16461 1.16461,-1.16461c0.64319,0 1.16461,0.52141 1.16461,1.16461c0,0.64319 -0.52141,1.16461 -1.16461,1.16461c-0.64319,0 -1.16461,-0.52141 -1.16461,-1.16461z"/><path d="M75.47128,181.88205c0,-0.64319 0.52141,-1.16461 1.16461,-1.16461c0.64319,0 1.16461,0.52141 1.16461,1.16461c0,0.64319 -0.52141,1.16461 -1.16461,1.16461c-0.64319,0 -1.16461,-0.52141 -1.16461,-1.16461z"/><path d="M242.10571,163.62075c0,-0.64319 0.52141,-1.16461 1.16461,-1.16461c0.64319,0 1.16461,0.52141 1.16461,1.16461c0,0.64319 -0.52141,1.16461 -1.16461,1.16461c-0.64319,0 -1.16461,-0.52141 -1.16461,-1.16461z"/><path d="M215.85508,192.15406c0,-0.64319 0.52141,-1.16461 1.16461,-1.16461c0.64319,0 1.16461,0.52141 1.16461,1.16461c0,0.64319 -0.52141,1.16461 -1.16461,1.16461c-0.64319,0 -1.16461,-0.52141 -1.16461,-1.16461z"/><path d="M133.6792,187.58873c0,-0.64319 0.52141,-1.16461 1.16461,-1.16461c0.64319,0 1.16461,0.52141 1.16461,1.16461c0,0.64319 -0.52141,1.16461 -1.16461,1.16461c-0.64319,0 -1.16461,-0.52141 -1.16461,-1.16461z"/><path d="M52.64465,145.35946c0,-0.64319 0.52141,-1.16461 1.16461,-1.16461c0.64319,0 1.16461,0.52141 1.16461,1.16461c0,0.64319 -0.52141,1.16461 -1.16461,1.16461c-0.64319,0 -1.16461,-0.52141 -1.16461,-1.16461z"/><path d="M268.35632,169.32742c0,-0.64319 0.52141,-1.16461 1.16461,-1.16461c0.64319,0 1.16461,0.52141 1.16461,1.16461c0,0.64319 -0.52141,1.16461 -1.16461,1.16461c-0.64319,0 -1.16461,-0.52141 -1.16461,-1.16461z"/><path d="M409.88144,163.62075c0,-0.64319 0.52141,-1.16461 1.16461,-1.16461c0.64319,0 1.16461,0.52141 1.16461,1.16461c0,0.64319 -0.52141,1.16461 -1.16461,1.16461c-0.64319,0 -1.16461,-0.52141 -1.16461,-1.16461z"/><path d="M333.41224,178.45807c0,-0.64319 0.52141,-1.16461 1.16461,-1.16461c0.64319,0 1.16461,0.52141 1.16461,1.16461c0,0.64319 -0.52141,1.16461 -1.16461,1.16461c-0.64319,0 -1.16461,-0.52141 -1.16461,-1.16461z"/><path d="M185.03912,168.1861c0,-0.64319 0.52141,-1.16461 1.16461,-1.16461c0.64319,0 1.16461,0.52141 1.16461,1.16461c0,0.64319 -0.52141,1.16461 -1.16461,1.16461c-0.64319,0 -1.16461,-0.52141 -1.16461,-1.16461z"/><path d="M135.96186,101.98886c0,-0.64319 0.52141,-1.16461 1.16461,-1.16461c0.64319,0 1.16461,0.52141 1.16461,1.16461c0,0.64319 -0.52141,1.16461 -1.16461,1.16461c-0.64319,0 -1.16461,-0.52141 -1.16461,-1.16461z"/><path d="M75.47128,100.84752c0,-0.64319 0.52141,-1.16461 1.16461,-1.16461c0.64319,0 1.16461,0.52141 1.16461,1.16461c0,0.64319 -0.52141,1.16461 -1.16461,1.16461c-0.64319,0 -1.16461,-0.52141 -1.16461,-1.16461z"/><path d="M37.80734,47.20493c0,-0.64319 0.52141,-1.16461 1.16461,-1.16461c0.64319,0 1.16461,0.52141 1.16461,1.16461c0,0.64319 -0.52141,1.16461 -1.16461,1.16461c-0.64319,0 -1.16461,-0.52141 -1.16461,-1.16461z"/><path d="M82.31928,18.67163c0,-0.64319 0.52141,-1.16461 1.16461,-1.16461c0.64319,0 1.16461,0.52141 1.16461,1.16461c0,0.64319 -0.52141,1.16461 -1.16461,1.16461c-0.64319,0 -1.16461,-0.52141 -1.16461,-1.16461z"/><path d="M189.60445,19.81298c0,-0.64319 0.52141,-1.16461 1.16461,-1.16461c0.64319,0 1.16461,0.52141 1.16461,1.16461c0,0.64319 -0.52141,1.16461 -1.16461,1.16461c-0.64319,0 -1.16461,-0.52141 -1.16461,-1.16461z"/><path d="M132.53787,49.4876c0,-0.64319 0.52141,-1.16461 1.16461,-1.16461c0.64319,0 1.16461,0.52141 1.16461,1.16461c0,0.64319 -0.52141,1.16461 -1.16461,1.16461c-0.64319,0 -1.16461,-0.52141 -1.16461,-1.16461z"/><path d="M308.30293,30.08496c0,-0.64319 0.52141,-1.16461 1.16461,-1.16461c0.64319,0 1.16461,0.52141 1.16461,1.16461c0,0.64319 -0.52141,1.16461 -1.16461,1.16461c-0.64319,0 -1.16461,-0.52141 -1.16461,-1.16461z"/><path d="M419.01212,32.36762c0,-0.64319 0.52141,-1.16461 1.16461,-1.16461c0.64319,0 1.16461,0.52141 1.16461,1.16461c0,0.64319 -0.52141,1.16461 -1.16461,1.16461c-0.64319,0 -1.16461,-0.52141 -1.16461,-1.16461z"/><path d="M366.51084,82.58621c0,-0.64319 0.52141,-1.16461 1.16461,-1.16461c0.64319,0 1.16461,0.52141 1.16461,1.16461c0,0.64319 -0.52141,1.16461 -1.16461,1.16461c-0.64319,0 -1.16461,-0.52141 -1.16461,-1.16461z"/><path d="M232.97504,93.99953c0,-0.64319 0.52141,-1.16461 1.16461,-1.16461c0.64319,0 1.16461,0.52141 1.16461,1.16461c0,0.64319 -0.52141,1.16461 -1.16461,1.16461c-0.64319,0 -1.16461,-0.52141 -1.16461,-1.16461z"/><path d="M235.28099,42.61633c0.64319,0 1.16461,0.52141 1.16461,1.16461c0,0.64319 -0.52141,1.16461 -1.16461,1.16461c-0.64319,0 -1.16461,-0.52141 -1.16461,-1.16461c0,-0.64319 0.52141,-1.16461 1.16461,-1.16461z"/><path d="M372.21751,56.3356c0,-0.64319 0.52141,-1.16461 1.16461,-1.16461c0.64319,0 1.16461,0.52141 1.16461,1.16461c0,0.64319 -0.52141,1.16461 -1.16461,1.16461c-0.64319,0 -1.16461,-0.52141 -1.16461,-1.16461z"/><path d="M433.84942,92.8582c0,-0.64319 0.52141,-1.16461 1.16461,-1.16461c0.64319,0 1.16461,0.52141 1.16461,1.16461c0,0.64319 -0.52141,1.16461 -1.16461,1.16461c-0.64319,0 -1.16461,-0.52141 -1.16461,-1.16461z"/><path d="M314.00958,123.67415c0,-0.64319 0.52141,-1.16461 1.16461,-1.16461c0.64319,0 1.16461,0.52141 1.16461,1.16461c0,0.64319 -0.52141,1.16461 -1.16461,1.16461c-0.64319,0 -1.16461,-0.52141 -1.16461,-1.16461z"/><path d="M315.15092,67.7489c0,-0.64319 0.52141,-1.16461 1.16461,-1.16461c0.64319,0 1.16461,0.52141 1.16461,1.16461c0,0.64319 -0.52141,1.16461 -1.16461,1.16461c-0.64319,0 -1.16461,-0.52141 -1.16461,-1.16461z"/><path d="M372.21751,137.37013c0,-0.64319 0.52141,-1.16461 1.16461,-1.16461c0.64319,0 1.16461,0.52141 1.16461,1.16461c0,0.64319 -0.52141,1.16461 -1.16461,1.16461c-0.64319,0 -1.16461,-0.52141 -1.16461,-1.16461z"/><path d="M93.73259,112.26084c0,-0.64319 0.52141,-1.16461 1.16461,-1.16461c0.64319,0 1.16461,0.52141 1.16461,1.16461c0,0.64319 -0.52141,1.16461 -1.16461,1.16461c-0.64319,0 -1.16461,-0.52141 -1.16461,-1.16461z"/><path d="M61.7753,70.03157c0,-0.64319 0.52141,-1.16461 1.16461,-1.16461c0.64319,0 1.16461,0.52141 1.16461,1.16461c0,0.64319 -0.52141,1.16461 -1.16461,1.16461c-0.64319,0 -1.16461,-0.52141 -1.16461,-1.16461z"/><path d="M135.96186,15.24765c0,-0.64319 0.52141,-1.16461 1.16461,-1.16461c0.64319,0 1.16461,0.52141 1.16461,1.16461c0,0.64319 -0.52141,1.16461 -1.16461,1.16461c-0.64319,0 -1.16461,-0.52141 -1.16461,-1.16461z"/><path d="M454.39339,22.09564c0,-0.64319 0.52141,-1.16461 1.16461,-1.16461c0.64319,0 1.16461,0.52141 1.16461,1.16461c0,0.64319 -0.52141,1.16461 -1.16461,1.16461c-0.64319,0 -1.16461,-0.52141 -1.16461,-1.16461z"/><path d="M360.80418,20.95431c0,-0.64319 0.52141,-1.16461 1.16461,-1.16461c0.64319,0 1.16461,0.52141 1.16461,1.16461c0,0.64319 -0.52141,1.16461 -1.16461,1.16461c-0.64319,0 -1.16461,-0.52141 -1.16461,-1.16461z"/><path d="M333.41224,51.77026c0,-0.64319 0.52141,-1.16461 1.16461,-1.16461c0.64319,0 1.16461,0.52141 1.16461,1.16461c0,0.64319 -0.52141,1.16461 -1.16461,1.16461c-0.64319,0 -1.16461,-0.52141 -1.16461,-1.16461z"/><path d="M267.215,73.45556c0,-0.64319 0.52141,-1.16461 1.16461,-1.16461c0.64319,0 1.16461,0.52141 1.16461,1.16461c0,0.64319 -0.52141,1.16461 -1.16461,1.16461c-0.64319,0 -1.16461,-0.52141 -1.16461,-1.16461z"/><path d="M237.54038,24.3783c0,-0.64319 0.52141,-1.16461 1.16461,-1.16461c0.64319,0 1.16461,0.52141 1.16461,1.16461c0,0.64319 -0.52141,1.16461 -1.16461,1.16461c-0.64319,0 -1.16461,-0.52141 -1.16461,-1.16461z"/><path d="M173.62581,55.19425c0,-0.64319 0.52141,-1.16461 1.16461,-1.16461c0.64319,0 1.16461,0.52141 1.16461,1.16461c0,0.64319 -0.52141,1.16461 -1.16461,1.16461c-0.64319,0 -1.16461,-0.52141 -1.16461,-1.16461z"/><path d="M172.48447,101.98886c0,-0.64319 0.52141,-1.16461 1.16461,-1.16461c0.64319,0 1.16461,0.52141 1.16461,1.16461c0,0.64319 -0.52141,1.16461 -1.16461,1.16461c-0.64319,0 -1.16461,-0.52141 -1.16461,-1.16461z"/><path d="M36.66601,114.5435c0,-0.64319 0.52141,-1.16461 1.16461,-1.16461c0.64319,0 1.16461,0.52141 1.16461,1.16461c0,0.64319 -0.52141,1.16461 -1.16461,1.16461c-0.64319,0 -1.16461,-0.52141 -1.16461,-1.16461z"/><path d="M246.67103,131.66347c0,-0.64319 0.52141,-1.16461 1.16461,-1.16461c0.64319,0 1.16461,0.52141 1.16461,1.16461c0,0.64319 -0.52141,1.16461 -1.16461,1.16461c-0.64319,0 -1.16461,-0.52141 -1.16461,-1.16461z"/><path d="M352.81488,96.28219c0,-0.64319 0.52141,-1.16461 1.16461,-1.16461c0.64319,0 1.16461,0.52141 1.16461,1.16461c0,0.64319 -0.52141,1.16461 -1.16461,1.16461c-0.64319,0 -1.16461,-0.52141 -1.16461,-1.16461z"/><path d="M417.87077,109.97818c0,-0.64319 0.52141,-1.16461 1.16461,-1.16461c0.64319,0 1.16461,0.52141 1.16461,1.16461c0,0.64319 -0.52141,1.16461 -1.16461,1.16461c-0.64319,0 -1.16461,-0.52141 -1.16461,-1.16461z"/><path d="M463.52404,141.93545c0,-0.64319 0.52141,-1.16461 1.16461,-1.16461c0.64319,0 1.16461,0.52141 1.16461,1.16461c0,0.64319 -0.52141,1.16461 -1.16461,1.16461c-0.64319,0 -1.16461,-0.52141 -1.16461,-1.16461z"/><path d="M399.60946,75.73823c0,-0.64319 0.52141,-1.16461 1.16461,-1.16461c0.64319,0 1.16461,0.52141 1.16461,1.16461c0,0.64319 -0.52141,1.16461 -1.16461,1.16461c-0.64319,0 -1.16461,-0.52141 -1.16461,-1.16461z"/><path d="M388.19616,27.8023c0,-0.64319 0.52141,-1.16461 1.16461,-1.16461c0.64319,0 1.16461,0.52141 1.16461,1.16461c0,0.64319 -0.52141,1.16461 -1.16461,1.16461c-0.64319,0 -1.16461,-0.52141 -1.16461,-1.16461z"/><path d="M223.8444,121.3915c0,-0.64319 0.52141,-1.16461 1.16461,-1.16461c0.64319,0 1.16461,0.52141 1.16461,1.16461c0,0.64319 -0.52141,1.16461 -1.16461,1.16461c-0.64319,0 -1.16461,-0.52141 -1.16461,-1.16461z"/><path d="M222.70306,60.90092c0,-0.64319 0.52141,-1.16461 1.16461,-1.16461c0.64319,0 1.16461,0.52141 1.16461,1.16461c0,0.64319 -0.52141,1.16461 -1.16461,1.16461c-0.64319,0 -1.16461,-0.52141 -1.16461,-1.16461z"/><path d="M94.87392,39.2156c0,-0.64319 0.52141,-1.16461 1.16461,-1.16461c0.64319,0 1.16461,0.52141 1.16461,1.16461c0,0.64319 -0.52141,1.16461 -1.16461,1.16461c-0.64319,0 -1.16461,-0.52141 -1.16461,-1.16461z"/><path d="M22.97003,25.51963c0,-0.64319 0.52141,-1.16461 1.16461,-1.16461c0.64319,0 1.16461,0.52141 1.16461,1.16461c0,0.64319 -0.52141,1.16461 -1.16461,1.16461c-0.64319,0 -1.16461,-0.52141 -1.16461,-1.16461z"/><path d="M17.26338,83.72755c0,-0.64319 0.52141,-1.16461 1.16461,-1.16461c0.64319,0 1.16461,0.52141 1.16461,1.16461c0,0.64319 -0.52141,1.16461 -1.16461,1.16461c-0.64319,0 -1.16461,-0.52141 -1.16461,-1.16461z"/><path d="M17.26338,125.95682c0,-0.64319 0.52141,-1.16461 1.16461,-1.16461c0.64319,0 1.16461,0.52141 1.16461,1.16461c0,0.64319 -0.52141,1.16461 -1.16461,1.16461c-0.64319,0 -1.16461,-0.52141 -1.16461,-1.16461z"/><path d="M334.55355,131.66347c0,-0.64319 0.52141,-1.16461 1.16461,-1.16461c0.64319,0 1.16461,0.52141 1.16461,1.16461c0,0.64319 -0.52141,1.16461 -1.16461,1.16461c-0.64319,0 -1.16461,-0.52141 -1.16461,-1.16461z"/><path d="M314.00958,93.99953c0,-0.64319 0.52141,-1.16461 1.16461,-1.16461c0.64319,0 1.16461,0.52141 1.16461,1.16461c0,0.64319 -0.52141,1.16461 -1.16461,1.16461c-0.64319,0 -1.16461,-0.52141 -1.16461,-1.16461z"/><path d="M198.73509,89.43421c0,-0.64319 0.52141,-1.16461 1.16461,-1.16461c0.64319,0 1.16461,0.52141 1.16461,1.16461c0,0.64319 -0.52141,1.16461 -1.16461,1.16461c-0.64319,0 -1.16461,-0.52141 -1.16461,-1.16461z"/></g><path d="M125.9937,331.29155c0,-13.5612 50.75193,-24.55472 113.35759,-24.55472c62.60566,0 113.35759,10.99352 113.35759,24.55472c0,13.5612 -50.75193,24.55472 -113.35759,24.55472c-62.60566,0 -113.35759,-10.99352 -113.35759,-24.55472z" fill="#333e43" stroke-width="2"/></g></g></svg>