<svg version="1.1" xmlns="http://www.w3.org/2000/svg" xmlns:xlink="http://www.w3.org/1999/xlink" width="16.94627" height="91.72384" viewBox="0,0,16.94627,91.72384"><g transform="translate(-231.77017,-88.37505)"><g data-paper-data="{&quot;isPaintingLayer&quot;:true}" fill-rule="evenodd" stroke="none" stroke-width="0.5" stroke-linecap="butt" stroke-linejoin="miter" stroke-miterlimit="10" stroke-dasharray="" stroke-dashoffset="0" style="mix-blend-mode: normal"><path d="M238.86078,176.62243l-0.00495,1.16582l0.4138,0.71672v1.32324h-2.20993l-0.01361,-1.22774l0.49109,-0.8185l-0.02731,-1.13225z" fill="#657a83"/><path d="M242.85741,176.64971l-0.02731,1.13225l0.49109,0.8185l-0.01361,1.22774h-2.20993v-1.32324l0.4138,-0.71672l-0.00495,-1.16582z" fill="#657a83"/><path d="M240.1069,88.45946l0.0358,-0.0844v0.16839l0.33806,0.80016v4.27664l0.83512,1.06405h-0.83512v1.39826l0.60023,3.38312l1.63699,2.94658v9.76737l1.20046,7.58473v11.64138l0.59,2.16048v41.82551l-1.46604,1.42767l-2.93507,-0.11467l-2.93507,0.11467l-1.46647,-1.42767v-41.82551l0.59,-2.16048v-11.64138l1.20046,-7.58473v-9.76737l1.63699,-2.94658l0.60023,-3.38312v-1.39826h-0.66162l0.66162,-0.9579v-4.38279l0.33805,-0.80016v-0.16839z" fill="#94a5b0"/><path d="M234.24064,129.01992l0.00165,-0.0066l1.7751,4.86152v42.98291l0.69444,1.31172h-0.69444v1.92943h-1.54618h-0.46041h-1.54576v-1.92943h-0.69487l0.69487,-1.31172v-42.98291l1.77468,-4.86152z" fill="#c8d2d8"/><path d="M246.24525,129.01992l0.00165,-0.0066l1.7751,4.86152v42.98291l0.69444,1.31172h-0.69444v1.92943h-1.54618h-0.46041h-1.54576v-1.92943h-0.69487l0.69487,-1.31172v-42.98291l1.77468,-4.86152z" fill="#c8d2d8"/></g></g></svg>