<svg version="1.1" xmlns="http://www.w3.org/2000/svg" xmlns:xlink="http://www.w3.org/1999/xlink" width="20.13615" height="102.26254" viewBox="0,0,20.13615,102.26254"><g transform="translate(-229.86422,-88.37507)"><g data-paper-data="{&quot;isPaintingLayer&quot;:true}" stroke="none" stroke-linejoin="miter" stroke-miterlimit="10" stroke-dasharray="" stroke-dashoffset="0" style="mix-blend-mode: normal"><path d="M238.86078,176.62245l-0.00495,1.16582l0.4138,0.71672v1.32324h-2.20993l-0.01361,-1.22774l0.49109,-0.8185l-0.02731,-1.13225z" fill="#657a83" fill-rule="evenodd" stroke-width="0.5" stroke-linecap="butt"/><path d="M242.85741,176.64973l-0.02731,1.13225l0.49109,0.8185l-0.01361,1.22774h-2.20993v-1.32324l0.4138,-0.71672l-0.00495,-1.16582z" fill="#657a83" fill-rule="evenodd" stroke-width="0.5" stroke-linecap="butt"/><path d="M240.1069,88.45948l0.0358,-0.0844v0.16839l0.33806,0.80016v4.27664l0.83512,1.06405h-0.83512v1.39826l0.60023,3.38312l1.63699,2.94658v9.76737l1.20046,7.58473v11.64138l0.59,2.16048v41.82551l-1.46604,1.42767l-2.93507,-0.11467l-2.93507,0.11467l-1.46647,-1.42767v-41.82551l0.59,-2.16048v-11.64138l1.20046,-7.58473v-9.76737l1.63699,-2.94658l0.60023,-3.38312v-1.39826h-0.66162l0.66162,-0.9579v-4.38279l0.33805,-0.80016v-0.16839z" fill="#94a5b0" fill-rule="evenodd" stroke-width="0.5" stroke-linecap="butt"/><path d="M234.24064,129.01993l0.00165,-0.0066l1.7751,4.86152v42.98291l0.69444,1.31172h-0.69444v1.92943h-1.54618h-0.46041h-1.54576v-1.92943h-0.69487l0.69487,-1.31172v-42.98291l1.77468,-4.86152z" fill="#c8d2d8" fill-rule="evenodd" stroke-width="0.5" stroke-linecap="butt"/><path d="M246.24525,129.01993l0.00165,-0.0066l1.7751,4.86152v42.98291l0.69444,1.31172h-0.69444v1.92943h-1.54618h-0.46041h-1.54576v-1.92943h-0.69487l0.69487,-1.31172v-42.98291l1.77468,-4.86152z" fill="#c8d2d8" fill-rule="evenodd" stroke-width="0.5" stroke-linecap="butt"/><path d="M237.94197,183.36307c0.48969,2.8869 -3.93269,7.27455 -3.93269,7.27455c0,0 -4.37206,-4.20248 -4.13582,-7.08472c0.16962,-2.06941 3.81201,-2.88615 3.81201,-2.88615c0,0 3.82125,0.13037 4.2565,2.69632z" fill="#ffffff" fill-rule="nonzero" stroke-width="0" stroke-linecap="round"/><path d="M233.96975,181.38385c0,0 1.96743,0.63504 2.22391,2.14712c0.28857,1.70121 -2.05887,5.22905 -2.05887,5.22905c0,0 -2.30672,-3.67872 -2.16752,-5.37718c0.09995,-1.21948 2.00247,-1.99898 2.00247,-1.99898z" fill="#ffee80" fill-rule="nonzero" stroke-width="0" stroke-linecap="round"/><path d="M249.96252,183.2894c0.48969,2.8869 -3.93269,7.27455 -3.93269,7.27455c0,0 -4.37206,-4.20248 -4.13582,-7.08472c0.16962,-2.06941 3.81201,-2.88615 3.81201,-2.88615c0,0 3.82125,0.13037 4.25649,2.69632z" fill="#ffffff" fill-rule="nonzero" stroke-width="0" stroke-linecap="round"/><path d="M245.9903,181.31018c0,0 1.96743,0.63504 2.22392,2.14712c0.28857,1.70121 -2.05887,5.22905 -2.05887,5.22905c0,0 -2.30672,-3.67872 -2.16752,-5.37718c0.09995,-1.21948 2.00247,-1.99898 2.00247,-1.99898z" fill="#ffee80" fill-rule="nonzero" stroke-width="0" stroke-linecap="round"/></g></g></svg>