<?xml version="1.0" encoding="UTF-8" standalone="no"?>
<!-- Created with Inkscape (http://www.inkscape.org/) -->

<svg
   width="480"
   height="360"
   viewBox="0 0 127 95.25"
   version="1.1"
   id="svg1218"
   xml:space="preserve"
   xmlns="http://www.w3.org/2000/svg"
   xmlns:svg="http://www.w3.org/2000/svg"><defs
     id="defs1215" /><g
     id="layer2"><path
       style="color:#000000;fill:#e6e6e6;fill-rule:evenodd;stroke-dasharray:1.05833, 0.529167;-inkscape-stroke:none"
       d="m 31.419922,5.2851562 v 0.2636719 c 0.351649,-0.00156 0.704145,0.00191 1.05664,0.00586 l 0.0039,-0.265625 c -0.353003,-0.00396 -0.706647,-0.00547 -1.060547,-0.00391 z m -0.53125,0.00195 c -0.352781,0.00304 -0.704658,0.00549 -1.058594,0.013672 l 0.0059,0.265625 c 0.351432,-0.00812 0.703912,-0.012589 1.056641,-0.015625 z m 2.121094,0.00977 -0.0039,0.265625 c 0.35174,0.00506 0.702524,0.014551 1.054688,0.025391 l 0.0078,-0.265625 c -0.35305,-0.010867 -0.70485,-0.020304 -1.058593,-0.025391 z M 29.298828,5.3125 c -0.35241,0.010084 -0.704759,0.020388 -1.058594,0.035156 l 0.01172,0.2636719 c 0.351106,-0.014654 0.701858,-0.023107 1.054688,-0.033203 z m 5.298828,0.027344 -0.0078,0.2636719 c 0.351693,0.011732 0.702946,0.027274 1.054687,0.044922 L 35.658213,5.384766 C 35.30529,5.367059 34.951136,5.351636 34.597666,5.339844 Z M 27.710937,5.369141 C 27.357112,5.383836 27.0044,5.404508 26.652344,5.423828 L 26.667969,5.6875 C 27.020381,5.66816 27.371534,5.647395 27.722656,5.632813 Z M 36.1875,5.41211 36.17383,5.6757818 c 0.351508,0.018445 0.701513,0.040053 1.052734,0.064453 l 0.01953,-0.2636719 C 36.893459,5.4520642 36.540577,5.4306368 36.1875,5.41211 Z M 26.123047,5.455079 c -0.353405,0.021309 -0.704854,0.047919 -1.056641,0.074219 l 0.01953,0.2636718 c 0.351786,-0.0263 0.703817,-0.053062 1.054688,-0.074219 z m 11.65039,0.058594 -0.01953,0.2636718 c 0.351182,0.02518 0.702135,0.052872 1.052735,0.083984 l 0.02344,-0.2617187 C 38.477889,5.5683561 38.126006,5.5389511 37.773441,5.5136731 Z M 24.537109,5.572267 c -0.352871,0.027958 -0.703346,0.060558 -1.054687,0.09375 l 0.02344,0.2617188 c 0.351072,-0.033166 0.702254,-0.064029 1.052735,-0.091797 z m 14.820313,0.074219 -0.02344,0.2636718 c 0.350713,0.03192 0.700911,0.065721 1.050782,0.1035157 L 40.414062,5.75 C 40.062459,5.712019 39.709357,5.678516 39.357422,5.6464844 Z M 22.955078,5.716798 c -0.352222,0.034625 -0.703956,0.073264 -1.054687,0.1132812 l 0.0293,0.2636719 c 0.350263,-0.039964 0.700832,-0.07888 1.050782,-0.1132813 z m 17.984375,0.089844 -0.0293,0.2636719 c 0.3501,0.038653 0.699796,0.080549 1.048828,0.125 l 0.0332,-0.2636719 C 41.641312,5.886957 41.290636,5.845416 40.939447,5.806642 Z M 21.375,5.8925781 c -0.351456,0.041298 -0.702767,0.086025 -1.052734,0.1328125 l 0.03516,0.2636719 C 20.706777,6.2423569 21.056971,6.1972922 21.40625,6.15625 Z M 42.517578,6 l -0.0332,0.2617187 c 0.349344,0.045368 0.698791,0.091492 1.046875,0.1425782 l 0.03711,-0.2617188 C 43.218365,6.0912118 42.867908,6.0454961 42.517578,6 Z M 19.796875,6.0976562 C 19.4463,6.1456246 19.097102,6.1984441 18.748047,6.2519531 l 0.04102,0.2617188 c 0.348345,-0.0534 0.696454,-0.1066167 1.044922,-0.1542969 z M 44.09375,6.2207031 44.05469,6.4824219 c 0.348447,0.052054 0.695947,0.1063628 1.042969,0.1640625 l 0.04297,-0.2617188 C 44.791647,6.3267407 44.443109,6.272894 44.09375,6.2207031 Z M 18.224609,6.3339844 c -0.349577,0.054628 -0.696924,0.1136438 -1.044922,0.1738281 l 0.04492,0.2597656 c 0.347229,-0.060051 0.693497,-0.1175686 1.041016,-0.171875 z m 27.4375,0.1386718 -0.04297,0.2597657 c 0.347407,0.058705 0.693214,0.1193019 1.039062,0.1835937 L 46.707031,6.65625 C 46.359207,6.591591 46.010388,6.5315083 45.662109,6.4726562 Z m -29.003906,0.125 c -0.348464,0.061271 -0.696169,0.1265463 -1.042969,0.1933594 l 0.04883,0.2597656 c 0.346006,-0.06666 0.69263,-0.1304924 1.039062,-0.1914062 z m 30.570313,0.1542969 -0.04883,0.2617188 c 0.34623,0.065313 0.690596,0.1322648 1.035157,0.203125 l 0.05273,-0.2597657 C 47.921046,6.8857658 47.575606,6.8174289 47.228516,6.7519531 Z m -32.132813,0.140625 c -0.347235,0.067893 -0.693598,0.1414499 -1.039062,0.2148438 l 0.05469,0.2578125 c 0.34468,-0.073227 0.689947,-0.1453937 1.035156,-0.2128907 z m 33.691406,0.171875 -0.05469,0.2578125 c 0.344915,0.071876 0.690042,0.1452545 1.033203,0.2226563 l 0.05859,-0.2578125 C 49.479114,7.209269 49.132904,7.1365128 48.787109,7.0644531 Z M 13.539063,7.21875 C 13.193171,7.2932408 12.8479,7.3712489 12.503906,7.4511719 l 0.06055,0.2578125 c 0.343248,-0.07975 0.685446,-0.1583703 1.029297,-0.2324219 z m 36.800781,0.1855469 -0.05859,0.2578125 c 0.343468,0.078392 0.685696,0.1582747 1.027344,0.2421875 l 0.06445,-0.2558594 C 51.029503,7.5640588 50.684237,7.4828997 50.339844,7.4042969 Z M 11.988281,7.5722656 c -0.344432,0.081062 -0.686906,0.1655573 -1.029297,0.2519531 l 0.06445,0.2578126 c 0.341712,-0.086225 0.68303,-0.1713787 1.02539,-0.2519532 z M 51.886719,7.7734375 51.822266,8.03125 c 0.341889,0.084858 0.683415,0.1713299 1.023437,0.2617188 l 0.06836,-0.2558594 C 52.572211,7.9462343 52.229602,7.8585426 51.886719,7.7734375 Z M 10.445313,7.9550781 C 10.102456,8.0426831 9.7605798,8.1357089 9.4199219,8.2285156 l 0.070312,0.2539063 C 9.830311,8.3897735 10.170981,8.2999541 10.511719,8.2128906 Z m 42.980468,0.21875 -0.06836,0.2558594 c 0.340182,0.091277 0.67929,0.1844251 1.017578,0.28125 l 0.07227,-0.2558594 c -0.340031,-0.097324 -0.68022,-0.1896828 -1.021485,-0.28125 z M 8.9101563,8.3691406 C 8.5689909,8.4632595 8.2294237,8.5610075 7.890625,8.6601563 L 7.964844,8.9140625 C 8.3031873,8.8150469 8.6414852,8.7165638 8.9804688,8.6230469 Z m 46.0468747,0.2324219 -0.07422,0.2539063 c 0.33835,0.097648 0.677227,0.1975653 1.013672,0.3007812 l 0.07617,-0.2519531 C 55.634574,8.8005789 55.296567,8.6995526 54.957031,8.6015625 Z M 7.3828125,8.8105469 C 7.0434554,8.9111502 6.7059565,9.0156797 6.3691406,9.1210938 L 6.4492187,9.375 C 6.7857366,9.2696792 7.1218843,9.1643873 7.4589844,9.0644531 Z m 49.0957035,0.25 -0.07813,0.2519531 c 0.336393,0.1039722 0.673315,0.2107561 1.007812,0.3203125 l 0.08203,-0.2519531 C 57.154225,9.2708077 56.816212,9.1649216 56.478516,9.0605469 Z M 5.8652344,9.28125 C 5.5278032,9.3883084 5.1921347,9.4997351 4.8574219,9.6113281 l 0.083984,0.2519532 C 5.2760119,9.751724 5.6102252,9.641471 5.9453125,9.5351563 Z m 52.1269526,0.265625 -0.08203,0.25 c 0.334315,0.1102511 0.667552,0.224003 1,0.339844 l 0.08789,-0.2500002 C 58.66423,9.770401 58.32793,9.6575971 57.992187,9.546875 Z M 4.3554687,9.78125 C 4.0200821,9.894735 3.686009,10.013185 3.3535156,10.130859 l 0.087891,0.25 C 3.774021,10.263142 4.1065078,10.145862 4.4394531,10.033203 Z m 55.1406253,0.28125 -0.08594,0.25 c 0.332115,0.116486 0.661887,0.235358 0.992188,0.357422 l 0.0918,-0.248047 C 60.162635,10.299366 59.829769,10.179533 59.496094,10.0625 Z M 2.8554688,10.310547 c -0.3332045,0.119895 -0.6639744,0.245462 -0.9941407,0.369141 l 0.09375,0.246093 c 0.3305295,-0.123814 0.6595547,-0.246247 0.9902344,-0.365234 z m 58.1347652,0.294922 -0.0918,0.248047 c 0.329796,0.122677 0.658267,0.248733 0.986329,0.376953 l 0.09766,-0.246094 C 61.653341,10.855758 61.321726,10.728777 60.990234,10.605469 Z M 1.3652344,10.867188 c -0.3287766,0.127504 -0.65794088,0.25622 -0.98632815,0.388671 L 0.47851563,11.5 C 0.80446417,11.368532 1.1319167,11.242834 1.4609375,11.115234 Z m 61.1093746,0.310546 -0.09766,0.246094 c 0.327355,0.128826 0.654732,0.262184 0.980469,0.396485 l 0.09961,-0.244141 C 63.130486,11.441538 62.8038,11.307283 62.474609,11.177734 Z m -62.58789025,0.275391 c -0.32657345,0.133488 -0.65277886,0.26762 -0.97851565,0.40625 l 0.10351565,0.244141 c 0.32347065,-0.137666 0.65005075,-0.270835 0.9765625,-0.404297 z m 64.06054725,0.326172 -0.101563,0.244141 c 0.324795,0.134932 0.647369,0.27376 0.970703,0.414062 l 0.105469,-0.242187 c -0.323904,-0.14055 -0.647837,-0.280262 -0.974609,-0.416016 z m -65.5273441,0.287109 c -0.3242458,0.139449 -0.6477247,0.281058 -0.9707032,0.425782 l 0.1074219,0.240234 c 0.3208926,-0.143789 0.6448527,-0.282577 0.96875,-0.421875 z m 66.9882811,0.339844 -0.107422,0.242188 c 0.322113,0.140997 0.643981,0.287378 0.964844,0.433593 L 66.375,12.841797 C 66.05384,12.695446 65.732437,12.548176 65.408203,12.40625 Z m -68.4433593,0.302734 c -0.3217925,0.145385 -0.6427748,0.290678 -0.9628906,0.441407 l 0.1132813,0.240234 c 0.3182188,-0.149835 0.6378073,-0.2963 0.9589843,-0.441406 z M 66.855469,13.0625 66.744141,13.302734 c 0.319308,0.147024 0.638695,0.299141 0.957031,0.451172 l 0.113281,-0.238281 C 67.496133,13.363601 67.177044,13.210567 66.855469,13.0625 Z m -71.3320315,0.314453 c -0.3192135,0.151295 -0.637926,0.304299 -0.9550781,0.460938 l 0.1171875,0.236328 c 0.3154544,-0.155801 0.6328216,-0.308099 0.9511719,-0.458985 z m 72.7675785,0.369141 -0.115235,0.238281 c 0.316444,0.153359 0.631863,0.310802 0.947266,0.46875 l 0.11914,-0.236328 C 68.926746,14.05883 68.609484,13.900433 68.291016,13.746094 Z M -5.90625,14.072266 c -0.3165089,0.157174 -0.6312215,0.316066 -0.9453125,0.478515 l 0.1210938,0.236328 c 0.312605,-0.16168 0.6259901,-0.321883 0.9414062,-0.478515 z m 75.621094,0.382812 -0.121094,0.236328 c 0.313843,0.161203 0.627054,0.32145 0.9375,0.486328 l 0.125,-0.232421 C 70.34357,14.779248 70.028589,14.61623 69.714844,14.455078 Z m -77.0371096,0.339844 c -0.3136793,0.163024 -0.6265637,0.32794 -0.9375,0.496094 l 0.1269531,0.234375 c 0.3096776,-0.167473 0.6192672,-0.333749 0.9316406,-0.496094 z m 78.4453126,0.398437 -0.125,0.232422 c 0.310758,0.166658 0.620349,0.333169 0.927734,0.503907 l 0.128906,-0.230469 c -0.309408,-0.171862 -0.620628,-0.339065 -0.93164,-0.50586 z m -79.8476564,0.351563 c -0.3107255,0.168839 -0.6200423,0.339928 -0.9277344,0.513672 l 0.1308594,0.230468 c 0.3066801,-0.173171 0.614607,-0.343697 0.9238281,-0.511718 z M 72.517578,15.957031 72.388672,16.1875 c 0.307571,0.172107 0.613727,0.344983 0.917969,0.521484 l 0.132812,-0.228515 c -0.306051,-0.177552 -0.613739,-0.351015 -0.921875,-0.523438 z m -82.630859,0.363281 c -0.307648,0.174619 -0.611653,0.35204 -0.916016,0.53125 l 0.132813,0.228516 c 0.303622,-0.178774 0.608105,-0.355637 0.9140621,-0.529297 z m 84.011718,0.425782 -0.134765,0.228515 c 0.304281,0.17754 0.609136,0.356894 0.910156,0.539063 l 0.136719,-0.226563 c -0.302608,-0.183129 -0.606988,-0.362986 -0.91211,-0.541015 z m -85.384765,0.375 c -0.304448,0.180363 -0.605295,0.364286 -0.90625,0.548828 l 0.138672,0.226562 c 0.300516,-0.184272 0.599763,-0.367617 0.902343,-0.546875 z m 86.75,0.439453 -0.138672,0.226562 c 0.300887,0.182949 0.60071,0.368903 0.898437,0.556641 l 0.140625,-0.224609 c -0.299083,-0.188594 -0.598417,-0.374985 -0.90039,-0.558594 z m -88.107422,0.388672 c -0.301123,0.186074 -0.599008,0.374731 -0.896484,0.564453 l 0.142578,0.222656 c 0.297379,-0.18966 0.593492,-0.377685 0.892578,-0.5625 z M 76.611328,18.402344 76.470703,18.625 c 0.297388,0.188329 0.592348,0.379058 0.886719,0.572266 l 0.146484,-0.220704 C 77.208425,18.782627 76.910022,18.5915 76.611328,18.402344 Z m -90.796875,0.398437 c -0.297569,0.191788 -0.592792,0.387146 -0.886719,0.582031 l 0.146485,0.220704 c 0.294092,-0.194995 0.587334,-0.389638 0.882812,-0.580079 z m 92.130859,0.466797 -0.144531,0.220703 c 0.29378,0.193674 0.584039,0.391269 0.875,0.589844 l 0.150391,-0.21875 c -0.291805,-0.19915 -0.585572,-0.39713 -0.88086,-0.591797 z m -93.457031,0.412109 c -0.291917,0.198 -0.584757,0.394953 -0.875,0.597657 l 0.150391,0.216797 c 0.288207,-0.201283 0.581069,-0.397663 0.873047,-0.595704 z m 94.773438,0.478516 -0.148438,0.21875 c 0.290063,0.19898 0.577724,0.401634 0.865235,0.605469 l 0.152343,-0.216797 c -0.28806,-0.204225 -0.577385,-0.407281 -0.86914,-0.607422 z m -96.082031,0.423828 c -0.2886,0.203196 -0.576958,0.407239 -0.863282,0.615235 l 0.154297,0.21289 c 0.284513,-0.206679 0.573032,-0.410298 0.861328,-0.613281 z m 97.382812,0.492188 -0.154297,0.214843 c 0.286232,0.204246 0.571435,0.41211 0.855469,0.621094 l 0.15625,-0.21289 C 81.135665,21.488118 80.850598,21.279795 80.5625,21.074219 Z m -98.675781,0.433593 c -0.285124,0.208378 -0.569223,0.417695 -0.851563,0.63086 l 0.160157,0.210937 c 0.280752,-0.211966 0.563144,-0.420975 0.847656,-0.628906 z m 99.958984,0.50586 -0.158203,0.21289 c 0.282284,0.209468 0.561243,0.422706 0.841797,0.636719 l 0.162109,-0.210937 C 82.411005,22.438446 82.13002,22.224648 81.845703,22.013672 Z m -101.232422,0.445312 c -0.2815,0.213533 -0.561552,0.428275 -0.839843,0.646485 l 0.162109,0.208984 c 0.276933,-0.217145 0.557266,-0.431662 0.837891,-0.644531 z m 102.498047,0.517578 -0.164062,0.208985 c 0.278242,0.217021 0.557736,0.43252 0.832031,0.652344 l 0.164062,-0.205079 c -0.276271,-0.221408 -0.553951,-0.439355 -0.832031,-0.65625 z m -103.755859,0.455079 c -0.277739,0.218654 -0.553943,0.440934 -0.828125,0.664062 l 0.167969,0.205078 c 0.273061,-0.222216 0.547585,-0.442372 0.824218,-0.660156 z m 105.001953,0.53125 -0.166016,0.207031 c 0.274272,0.221647 0.548094,0.443015 0.81836,0.667969 l 0.167968,-0.203125 c -0.272021,-0.226416 -0.545832,-0.45006 -0.820312,-0.671875 z m -106.240234,0.466796 c -0.273846,0.223736 -0.54444,0.449821 -0.814454,0.677735 l 0.169922,0.203125 c 0.269145,-0.227181 0.539963,-0.453114 0.8125,-0.675781 z m 107.468749,0.542969 -0.169921,0.203125 c 0.270194,0.226287 0.538508,0.453626 0.804687,0.683594 l 0.173828,-0.199219 c -0.267717,-0.231297 -0.537881,-0.460779 -0.808594,-0.6875 z m -108.687499,0.476563 c -0.269824,0.228772 -0.536942,0.4608 -0.802735,0.693359 l 0.173828,0.199219 c 0.265196,-0.232037 0.532446,-0.461943 0.800782,-0.689453 z m 109.896484,0.55664 -0.173828,0.199219 c 0.266014,0.230919 0.530929,0.464349 0.792968,0.699219 l 0.175782,-0.197266 c -0.263358,-0.236052 -0.52813,-0.469577 -0.794922,-0.701172 z m -111.095703,0.486328 c -0.265678,0.233764 -0.529489,0.46998 -0.791016,0.707032 l 0.177735,0.197265 c 0.261228,-0.236781 0.523084,-0.472768 0.787109,-0.705078 z m 112.285156,0.56836 -0.177734,0.195312 c 0.261729,0.23553 0.521445,0.473228 0.779296,0.712891 l 0.181641,-0.193359 c -0.258945,-0.240679 -0.520472,-0.478413 -0.783203,-0.714844 z m -113.466797,0.496094 c -0.261409,0.238709 -0.518166,0.481278 -0.77539,0.722656 l 0.179687,0.193359 c 0.257261,-0.241412 0.513835,-0.483643 0.773438,-0.720703 z m 114.636719,0.580078 -0.179688,0.193359 c 0.257343,0.240107 0.512,0.482215 0.765625,0.726563 l 0.183594,-0.189454 C 89.669346,28.622014 89.412834,28.37794 89.154297,28.136719 Z m -115.798828,0.507812 c -0.254692,0.243965 -0.509253,0.488198 -0.761719,0.736328 l 0.185547,0.1875 c 0.250736,-0.246429 0.504958,-0.488346 0.759766,-0.732422 z m 116.949218,0.589844 -0.183593,0.189453 c 0.252852,0.244641 0.502585,0.493262 0.751953,0.742188 l 0.1875,-0.1875 c -0.249974,-0.24953 -0.501643,-0.49818 -0.75586,-0.744141 z m -118.08789,0.517578 c -0.250489,0.248504 -0.502268,0.4972 -0.75,0.75 l 0.189453,0.185547 c 0.246095,-0.251129 0.49571,-0.499647 0.746094,-0.748047 z m 119.216797,0.601563 -0.1875,0.1875 c 0.248256,0.249127 0.493188,0.500512 0.738281,0.753906 l 0.191406,-0.183594 c -0.245426,-0.253739 -0.492414,-0.507163 -0.742187,-0.757812 z m -120.337891,0.527343 c -0.246283,0.252968 -0.491406,0.50646 -0.734375,0.763672 l 0.191406,0.181641 c 0.241532,-0.25569 0.486534,-0.509156 0.732422,-0.761719 z m 121.447266,0.611328 -0.191407,0.183594 c 0.243553,0.25356 0.483794,0.511779 0.72461,0.769531 l 0.193359,-0.18164 c -0.240849,-0.257789 -0.481354,-0.516201 -0.726562,-0.771485 z m -122.544922,0.53711 c -0.241923,0.257392 -0.482541,0.515844 -0.720703,0.777344 l 0.195312,0.179687 c 0.236922,-0.260137 0.477462,-0.518673 0.71875,-0.775391 z m 123.630859,0.625 -0.193359,0.177734 c 0.238539,0.259006 0.475604,0.521049 0.710937,0.783203 L 94.341797,33.4375 c -0.235968,-0.262862 -0.473472,-0.523242 -0.712891,-0.783203 z m -124.708984,0.544922 c -0.237421,0.261766 -0.471766,0.525354 -0.705078,0.791015 l 0.199219,0.173828 c 0.232268,-0.264473 0.466539,-0.526264 0.703125,-0.787109 z m 125.77539,0.634765 -0.197265,0.173828 c 0.23357,0.264353 0.46617,0.53023 0.695312,0.796875 l 0.201172,-0.173828 c -0.230708,-0.268467 -0.465632,-0.532503 -0.699219,-0.796875 z m -126.830078,0.554688 c -0.232789,0.266083 -0.462987,0.533039 -0.691406,0.802734 l 0.201172,0.171875 c 0.227578,-0.268702 0.457669,-0.535847 0.689453,-0.800781 z m 127.873047,0.644531 -0.201172,0.171875 c 0.228826,0.268198 0.457357,0.535743 0.681641,0.806641 l 0.203125,-0.167969 c -0.225666,-0.272568 -0.454479,-0.542011 -0.683594,-0.810547 z m -128.90625,0.5625 c -0.228035,0.270339 -0.452293,0.542807 -0.675781,0.816406 l 0.203125,0.167969 c 0.222856,-0.272825 0.448898,-0.543526 0.675781,-0.8125 z m 129.927735,0.65625 -0.203125,0.167969 c 0.223976,0.27203 0.446635,0.545278 0.666015,0.820312 l 0.205078,-0.166015 c -0.220585,-0.276545 -0.44348,-0.549614 -0.667968,-0.822266 z m -130.939453,0.572266 c -0.223164,0.274529 -0.441635,0.550757 -0.660157,0.828125 l 0.207032,0.164062 c 0.218109,-0.276843 0.438271,-0.553215 0.660156,-0.826172 z m 131.937499,0.664062 -0.207031,0.164063 c 0.219027,0.275832 0.435956,0.552971 0.650391,0.832031 l 0.210937,-0.160156 c -0.215464,-0.2804 -0.434573,-0.559229 -0.654297,-0.835938 z m -132.923828,0.582031 c -0.218178,0.278653 -0.432956,0.55885 -0.646484,0.839844 l 0.210938,0.160156 c 0.213348,-0.280757 0.425789,-0.561013 0.642578,-0.83789 z m 133.900391,0.673829 -0.210938,0.160156 c 0.213981,0.279591 0.425316,0.560772 0.634766,0.84375 l 0.212891,-0.15625 C 99.16079,39.307665 98.949206,39.024842 98.734375,38.744141 Z m -134.865234,0.589843 c -0.213083,0.282707 -0.422344,0.567092 -0.63086,0.851563 l 0.212891,0.15625 c 0.208587,-0.284569 0.417314,-0.56888 0.628906,-0.84961 z m 135.816406,0.683594 -0.212891,0.15625 c 0.208841,0.283295 0.416665,0.568679 0.621094,0.855469 l 0.21484,-0.152344 c -0.2051,-0.28774 -0.413223,-0.574751 -0.623043,-0.859375 z m -136.759766,0.597656 c -0.205432,0.28661 -0.410716,0.572919 -0.613281,0.863282 l 0.216797,0.152343 c 0.201121,-0.288293 0.405737,-0.574496 0.611328,-0.861328 z m 137.689449,0.69336 -0.21679,0.152343 c 0.20361,0.286937 0.40414,0.576689 0.60351,0.867188 l 0.21875,-0.150391 c -0.19987,-0.291223 -0.40077,-0.580669 -0.60547,-0.86914 z m -138.605464,0.605468 c -0.200513,0.29029 -0.402512,0.580984 -0.59961,0.875 l 0.220703,0.146485 c 0.195773,-0.29204 0.395235,-0.580868 0.595704,-0.871094 z m 139.509764,0.701172 -0.21875,0.148438 c 0.19829,0.29051 0.3936,0.584801 0.58789,0.878906 l 0.22071,-0.146484 c -0.19461,-0.294577 -0.39038,-0.588618 -0.58985,-0.88086 z m -140.404296,0.613282 c -0.195517,0.293897 -0.39042,0.589217 -0.582031,0.886718 l 0.222656,0.142578 c 0.190432,-0.295671 0.384804,-0.58928 0.580079,-0.882812 z m 141.285156,0.710937 -0.22266,0.144531 c 0.19288,0.294009 0.38307,0.591062 0.57227,0.888672 l 0.22266,-0.142578 c -0.18932,-0.2978 -0.37813,-0.594692 -0.57227,-0.890625 z m -142.152343,0.621094 c -0.190388,0.297435 -0.380319,0.595615 -0.566406,0.896484 l 0.224609,0.138672 c 0.185047,-0.299188 0.374471,-0.595777 0.564453,-0.892578 z m 143.007813,0.71875 -0.22461,0.140625 c 0.18737,0.297428 0.3706,0.597422 0.55469,0.898437 l 0.22656,-0.136718 c -0.18401,-0.300888 -0.36793,-0.602803 -0.55664,-0.902344 z M -40.597656,45.90625 c -0.185136,0.300893 -0.368301,0.604081 -0.548828,0.908203 l 0.228515,0.134766 c 0.17962,-0.302594 0.362276,-0.604276 0.546875,-0.904297 z m 144.685546,0.728516 -0.22851,0.136718 c 0.18091,0.302935 0.36264,0.604098 0.53906,0.908203 l 0.22851,-0.132812 c -0.17762,-0.306182 -0.35823,-0.609314 -0.53906,-0.912109 z m -145.503906,0.634765 c -0.179772,0.304269 -0.358275,0.610709 -0.533203,0.917969 l 0.230469,0.130859 c 0.174148,-0.30589 0.35212,-0.610882 0.53125,-0.914062 z m 146.308596,0.736328 -0.22852,0.13086 c 0.17544,0.30607 0.3489,0.612551 0.51953,0.919922 l 0.23243,-0.128907 c -0.17182,-0.309505 -0.34802,-0.615829 -0.52344,-0.921875 z m -147.101564,0.640625 c -0.174308,0.307556 -0.346334,0.61745 -0.515625,0.927735 l 0.232422,0.126953 c 0.168633,-0.30908 0.338139,-0.617558 0.511718,-0.923828 z m 147.880864,0.744141 -0.23047,0.126953 c 0.16995,0.308969 0.33892,0.619151 0.5039,0.929688 l 0.23438,-0.125 c -0.16605,-0.312546 -0.33773,-0.622418 -0.50781,-0.931641 z m -148.650396,0.648437 c -0.168748,0.310751 -0.33443,0.622351 -0.498046,0.935547 l 0.234375,0.123047 c 0.163076,-0.312164 0.328142,-0.622357 0.496093,-0.93164 z m 149.406246,0.751954 -0.23437,0.123046 c 0.16438,0.311818 0.32705,0.623913 0.48633,0.9375 l 0.23633,-0.121093 c -0.16024,-0.315474 -0.32364,-0.62714 -0.48829,-0.939453 z m -150.148433,0.654296 c -0.1631,0.313851 -0.322566,0.629318 -0.480469,0.945313 l 0.236328,0.117187 c 0.157478,-0.315143 0.316266,-0.629191 0.478516,-0.941406 z m 150.876953,0.757813 -0.23633,0.119141 c 0.15873,0.314603 0.31521,0.630741 0.46875,0.947265 l 0.23828,-0.115234 c -0.15439,-0.318289 -0.31162,-0.635859 -0.4707,-0.951172 z M -44.4375,52.863281 c -0.157368,0.316852 -0.310738,0.636395 -0.462891,0.955078 l 0.238282,0.113282 c 0.151834,-0.318018 0.306413,-0.63416 0.46289,-0.949219 z m 152.29492,0.765625 -0.23828,0.115235 c 0.153,0.317317 0.30538,0.635729 0.45313,0.955078 l 0.23828,-0.111328 c -0.14851,-0.320995 -0.2997,-0.640768 -0.45313,-0.958985 z m -152.984373,0.667969 c -0.151558,0.319751 -0.298947,0.641627 -0.445313,0.962891 l 0.240235,0.109375 c 0.146148,-0.320788 0.292721,-0.641172 0.443359,-0.958985 z m 153.660153,0.771484 -0.24023,0.111328 c 0.14719,0.319953 0.29168,0.640829 0.43359,0.962891 l 0.24219,-0.107422 c -0.14259,-0.323591 -0.28786,-0.645776 -0.43555,-0.966797 z m -154.324216,0.673828 c -0.145673,0.322546 -0.287195,0.645015 -0.427734,0.96875 l 0.244141,0.105469 c 0.140416,-0.323453 0.281044,-0.646325 0.425781,-0.966797 z m 154.972656,0.777344 -0.24219,0.107422 c 0.14133,0.322504 0.28194,0.64604 0.41797,0.970703 l 0.24219,-0.103515 c -0.13662,-0.326081 -0.27611,-0.650888 -0.41797,-0.97461 z m -155.609374,0.679688 c -0.139722,0.325232 -0.27353,0.650459 -0.408203,0.976562 l 0.24414,0.101563 c 0.134637,-0.326014 0.269427,-0.651577 0.408203,-0.97461 z m 156.232424,0.785156 -0.24414,0.101562 c 0.1354,0.324967 0.26834,0.649411 0.39843,0.976563 l 0.2461,-0.09766 c -0.13062,-0.328463 -0.26443,-0.654153 -0.40039,-0.980469 z m -156.841799,0.681641 c -0.133706,0.327808 -0.261858,0.657959 -0.390625,0.986328 l 0.246093,0.0957 c 0.128807,-0.328469 0.257864,-0.654975 0.390625,-0.980469 z m 157.437499,0.791015 -0.24609,0.09766 c 0.12941,0.327336 0.25478,0.6568 0.3789,0.986329 l 0.24805,-0.09375 c -0.12458,-0.330741 -0.25087,-0.661434 -0.38086,-0.990235 z m -158.019531,0.689453 c -0.127631,0.330272 -0.25023,0.661651 -0.373046,0.992188 l 0.248046,0.0918 c 0.122921,-0.330817 0.244398,-0.66043 0.371094,-0.988282 z m 158.585941,0.796875 -0.24805,0.0918 c 0.12337,0.329609 0.24324,0.660395 0.36133,0.992188 l 0.25,-0.08789 c -0.11849,-0.332914 -0.23932,-0.664919 -0.36328,-0.996094 z m -159.140628,0.69336 c -0.121439,0.332437 -0.236762,0.665614 -0.353516,0.998047 l -0.002,0.002 0.25,0.08594 0.002,-0.002 c 0.116629,-0.332089 0.231326,-0.664992 0.351563,-0.994141 z m 159.681638,0.800781 -0.25,0.08984 c 0.11729,0.331783 0.23175,0.664106 0.34375,0.998047 l 0.25,-0.08398 C 111.7392,63.10642 111.62568,62.770933 111.50781,62.4375 Z m -160.208982,0.699219 c -0.112862,0.333995 -0.226824,0.668981 -0.335937,1.005859 l 0.251953,0.08203 c 0.108293,-0.334346 0.220984,-0.669501 0.333984,-1.003906 z m 160.720702,0.80664 -0.25195,0.08398 c 0.11115,0.333856 0.2203,0.667933 0.32617,1.003906 l 0.25195,-0.07813 c -0.10618,-0.336956 -0.21445,-0.674191 -0.32617,-1.009766 z m -161.220702,0.703125 c -0.106782,0.336042 -0.213555,0.672899 -0.316406,1.011719 l 0.253906,0.07617 c 0.10209,-0.336315 0.209524,-0.671454 0.316406,-1.007813 z m 161.705082,0.810547 -0.25196,0.08008 c 0.10498,0.335828 0.205,0.67188 0.30469,1.009766 l 0.25391,-0.07422 c -0.1,-0.338825 -0.20112,-0.678028 -0.30664,-1.015626 z m -162.175785,0.707031 c -0.100623,0.33797 -0.202266,0.676926 -0.298828,1.017579 l 0.255859,0.07227 c 0.09586,-0.338158 0.196174,-0.675442 0.296875,-1.013672 z m 162.630855,0.816407 -0.2539,0.07422 c 0.0988,0.337695 0.19561,0.677899 0.28906,1.017579 l 0.25391,-0.07031 c -0.0937,-0.340595 -0.18978,-0.681986 -0.28907,-1.021484 z m -163.074214,0.710937 c -0.09439,0.339775 -0.18905,0.681063 -0.279297,1.023438 l 0.255859,0.06641 c 0.08959,-0.339877 0.184839,-0.679518 0.279297,-1.019531 z m 163.501954,0.820313 -0.25391,0.07031 c 0.0925,0.339457 0.18042,0.680135 0.26758,1.021485 l 0.25781,-0.06641 c -0.0874,-0.342264 -0.17848,-0.684114 -0.27148,-1.02539 z m -163.916017,0.714843 c -0.08809,0.341457 -0.177808,0.683357 -0.261719,1.027344 l 0.257813,0.0625 c 0.0833,-0.341469 0.171612,-0.681728 0.259766,-1.023437 z m 164.316407,0.824219 -0.25586,0.06445 c 0.0862,0.341115 0.16917,0.684449 0.25,1.027344 l 0.25586,-0.06055 c -0.0811,-0.343834 -0.16332,-0.68832 -0.25,-1.03125 z m -164.703126,0.71875 c -0.08172,0.343009 -0.164632,0.685761 -0.242187,1.03125 l 0.257812,0.05859 c 0.07698,-0.342934 0.160399,-0.685981 0.242188,-1.029297 z m 165.074216,0.828125 -0.25781,0.05859 c 0.0799,0.342666 0.15603,0.686936 0.23047,1.03125 l 0.25977,-0.05469 c -0.0747,-0.345301 -0.15211,-0.690699 -0.23243,-1.035156 z m -165.431637,0.720703 c -0.07527,0.344429 -0.151471,0.688276 -0.222657,1.035157 l 0.259766,0.05469 c 0.07065,-0.344271 0.145344,-0.688369 0.220703,-1.033203 z M 114.5,73.150391 l -0.25781,0.05469 c 0.0736,0.344113 0.14291,0.689553 0.21094,1.035156 l 0.25976,-0.05078 c -0.0682,-0.346666 -0.13896,-0.693206 -0.21289,-1.039062 z m -166.103516,0.722656 -0.103515,0.519531 -0.09961,0.519531 0.259766,0.05078 0.09961,-0.519532 0.103516,-0.517578 z m 166.417966,0.835937 -0.25976,0.05078 c 0.0672,0.345454 0.13179,0.690346 0.19336,1.037109 l 0.25976,-0.04492 c -0.0618,-0.347925 -0.12585,-0.695842 -0.19336,-1.042969 z m -166.718747,0.72461 c -0.06483,0.348116 -0.12351,0.697503 -0.183594,1.044922 l 0.261719,0.04492 c 0.06015,-0.347791 0.119249,-0.695502 0.183594,-1.041015 z m 167.003907,0.83789 -0.25977,0.04687 c 0.0608,0.346694 0.11875,0.693226 0.17383,1.041016 l 0.25977,-0.04102 c -0.0553,-0.349077 -0.11279,-0.698608 -0.17383,-1.046875 z M -52.175781,77 c -0.05843,0.349196 -0.110578,0.698265 -0.164063,1.046875 l 0.261719,0.04102 c 0.05351,-0.348764 0.106054,-0.696284 0.164063,-1.042969 z m 167.531251,0.841797 -0.25977,0.04102 c 0.0543,0.347831 0.10571,0.696238 0.1543,1.044922 l 0.26172,-0.03711 c -0.0488,-0.350119 -0.1017,-0.699556 -0.15625,-1.048828 z m -167.773439,0.730469 c -0.05201,0.350146 -0.09963,0.699135 -0.146484,1.048828 l 0.261719,0.03516 c 0.04684,-0.349597 0.09483,-0.69717 0.146484,-1.044922 z m 168.001949,0.84375 -0.26171,0.03516 c 0.0478,0.348868 0.0927,0.697429 0.13476,1.046875 l 0.26367,-0.03125 c -0.0423,-0.351048 -0.0887,-0.700639 -0.13672,-1.050781 z m -168.216792,0.730468 c -0.04557,0.350968 -0.08675,0.702075 -0.126954,1.052735 l 0.263672,0.03125 c 0.04016,-0.350292 0.08168,-0.700113 0.126953,-1.048828 z m 168.416012,0.845703 -0.26367,0.03125 c 0.0413,0.349811 0.0816,0.700708 0.11719,1.050782 l 0.26172,-0.02734 c -0.0358,-0.351864 -0.0738,-0.703817 -0.11524,-1.054688 z m -168.601559,0.734375 c -0.0391,0.351657 -0.07388,0.703182 -0.107422,1.054688 l 0.263672,0.02539 c 0.03348,-0.350849 0.06855,-0.701205 0.107422,-1.050782 z m 168.771489,0.847657 -0.26368,0.02539 c 0.0347,0.350662 0.0686,0.700211 0.0977,1.050782 l 0.26367,-0.02148 c -0.0293,-0.352566 -0.0629,-0.703235 -0.0977,-1.054687 z m -168.927739,0.734375 c -0.03261,0.352212 -0.06099,0.704411 -0.08789,1.05664 l 0.263672,0.01953 c 0.02682,-0.351272 0.05546,-0.702396 0.08789,-1.052735 z m 169.068359,0.847656 -0.26367,0.02148 c 0.0281,0.351431 0.0555,0.703753 0.0781,1.054688 l 0.26368,-0.01758 c -0.0228,-0.353154 -0.05,-0.706719 -0.0781,-1.058594 z m -169.195312,0.736328 c -0.02607,0.35263 -0.04809,0.705766 -0.06836,1.058594 l 0.263672,0.01563 c 0.0202,-0.351563 0.04241,-0.703683 0.06836,-1.054688 z m 169.308592,0.851563 -0.26562,0.01563 c 0.0213,0.352129 0.0423,0.70352 0.0586,1.054687 l 0.26563,-0.01172 c -0.0164,-0.353631 -0.0373,-0.706469 -0.0586,-1.058593 z m -169.408202,0.736328 c -0.01948,0.3529 -0.03514,0.705293 -0.04883,1.058593 l 0.263672,0.0098 c 0.01363,-0.351725 0.03137,-0.703107 0.05078,-1.054687 z m 169.490232,0.851562 -0.26367,0.0098 0.0215,0.52539 0.0176,0.53125 0.26563,-0.0098 -0.0195,-0.53125 z m -169.560544,0.736328 c -0.01282,0.353012 -0.02213,0.706896 -0.0293,1.060547 l 0.263672,0.0059 c 0.0071,-0.351761 0.01846,-0.704569 0.03125,-1.056641 z m 169.615234,0.851563 -0.26367,0.0078 c 0.0101,0.351405 0.0163,0.701961 0.0215,1.054688 l 0.26367,-0.0039 c -0.005,-0.352733 -0.0113,-0.704734 -0.0215,-1.058594 z M -53.3125,89.658203 c -0.006,0.352944 -0.011,0.706663 -0.01172,1.060547 h 0.263672 c 7.14e-4,-0.351671 0.0076,-0.704145 0.01367,-1.056641 z m 169.68359,0.851563 -0.26562,0.002 0.002,0.113281 0.002,0.552734 v 0.002 l -0.002,0.552735 -0.006,0.503906 0.26563,0.002 0.004,-0.503906 0.002,-0.554688 h -0.13086 l 0.13086,-0.002 -0.002,-0.554687 z m -169.697262,0.738281 c 8.95e-4,0.352669 0.0022,0.706539 0.0078,1.060547 l 0.263672,-0.0039 c -0.0056,-0.351458 -0.005,-0.703779 -0.0059,-1.05664 z m 169.419922,1.515625 c -0.005,0.351583 -0.015,0.704162 -0.0254,1.05664 l 0.26562,0.0078 c 0.0104,-0.352757 0.0202,-0.706651 0.0254,-1.060547 z m -169.138672,0.07031 -0.265625,0.0039 c 0.0055,0.354045 0.0173,0.706143 0.02734,1.058593 l 0.263672,-0.0078 c -0.01005,-0.352795 -0.01992,-0.703264 -0.02539,-1.054688 z m 169.095702,1.513672 c -0.0116,0.351579 -0.0258,0.704668 -0.043,1.056641 l 0.26367,0.01172 c 0.0172,-0.352738 0.0333,-0.704999 0.0449,-1.058594 z m -169.052733,0.07031 -0.263672,0.0078 c 0.01186,0.353746 0.02793,0.708063 0.04492,1.060547 l 0.263672,-0.01367 c -0.01698,-0.352237 -0.03314,-0.703274 -0.04492,-1.054687 z m 168.982423,1.513672 c -0.0181,0.351446 -0.0387,0.703288 -0.0625,1.054687 l 0.26367,0.01758 c 0.0239,-0.352539 0.0444,-0.705414 0.0625,-1.058594 z M -52.929687,96 l -0.263672,0.01563 c 0.0183,0.353339 0.04067,0.704322 0.06445,1.056641 l 0.263672,-0.01758 c -0.02373,-0.35163 -0.04626,-0.703418 -0.06445,-1.054691 z m 168.810547,1.513672 c -0.0246,0.351186 -0.0517,0.701992 -0.082,1.052734 l 0.26367,0.02344 c 0.0305,-0.352181 0.0573,-0.705949 0.082,-1.058594 z m -168.708985,0.06836 -0.263672,0.01953 c 0.02479,0.352819 0.05351,0.704662 0.08398,1.056641 l 0.263671,-0.02344 c -0.03038,-0.350943 -0.05933,-0.701732 -0.08398,-1.052735 z M 115.75195,99.09375 c -0.0312,0.350794 -0.0647,0.700786 -0.10156,1.05078 l 0.26367,0.0273 c 0.0371,-0.35168 0.0703,-0.702702 0.10157,-1.054693 z m -168.449216,0.06836 -0.263671,0.02344 c 0.03131,0.352181 0.06448,0.705157 0.101562,1.05664 l 0.263672,-0.0293 c -0.03695,-0.350171 -0.07039,-0.700176 -0.101563,-1.050778 z m 168.292966,1.50781 c -0.0378,0.35027 -0.0777,0.70163 -0.12109,1.05078 l 0.26172,0.0312 c 0.0436,-0.35103 0.0832,-0.70152 0.12109,-1.05273 z m -168.134762,0.0703 -0.263672,0.0273 c 0.03786,0.35143 0.0794,0.70384 0.123047,1.05469 l 0.261718,-0.0332 c -0.04346,-0.34931 -0.08338,-0.69876 -0.121093,-1.04883 z m 167.947262,1.50391 c -0.0444,0.34961 -0.0889,0.69866 -0.13867,1.04688 l 0.26172,0.0371 c 0.0501,-0.35025 0.0962,-0.70046 0.14063,-1.05079 z m -167.759762,0.0684 -0.263672,0.0332 c 0.04441,0.35056 0.0924,0.70268 0.142578,1.05274 l 0.261719,-0.0391 c -0.04993,-0.34836 -0.09637,-0.69748 -0.140625,-1.04688 z m 167.544922,1.50195 c -0.051,0.34882 -0.10204,0.69776 -0.1582,1.04493 l 0.26172,0.043 c 0.0565,-0.34933 0.10715,-0.69951 0.1582,-1.04882 z m -167.330079,0.0684 -0.261718,0.0391 c 0.05095,0.34957 0.103496,0.69968 0.160156,1.04882 l 0.261719,-0.043 c -0.05636,-0.3473 -0.109349,-0.69632 -0.160157,-1.04492 z m 167.087889,1.49805 c -0.0576,0.34788 -0.11715,0.69499 -0.17969,1.04102 l 0.26172,0.0469 c 0.063,-0.34829 0.12013,-0.69673 0.17774,-1.04492 z m -166.841795,0.0684 -0.261719,0.043 c 0.05748,0.34848 0.116572,0.69683 0.179688,1.04492 l 0.259765,-0.0469 c -0.06276,-0.34614 -0.120391,-0.69335 -0.177734,-1.04101 z m 166.568355,1.49414 c -0.0641,0.34682 -0.12837,0.69234 -0.19726,1.03711 l 0.25976,0.0508 c 0.0694,-0.34711 0.13508,-0.69405 0.19922,-1.04102 z m -166.294917,0.0684 -0.261719,0.0469 c 0.06398,0.34728 0.129674,0.69411 0.199219,1.04102 l 0.259765,-0.0508 c -0.06914,-0.34488 -0.133413,-0.69052 -0.197265,-1.03711 z m 165.994137,1.48633 c -0.0706,0.34561 -0.13962,0.69174 -0.21484,1.03515 l 0.25781,0.0566 c 0.0757,-0.3458 0.14617,-0.69342 0.2168,-1.03906 z m -165.693356,0.0684 -0.257813,0.0527 c 0.07044,0.34597 0.140852,0.69346 0.216797,1.03906 l 0.259766,-0.0586 c -0.07549,-0.34351 -0.148424,-0.68781 -0.21875,-1.0332 z m 165.365236,1.48242 c -0.0771,0.34427 -0.1548,0.68735 -0.23633,1.0293 l 0.25781,0.0625 c 0.0821,-0.34438 0.15926,-0.689 0.23633,-1.03321 z m -165.033205,0.0684 -0.259766,0.0566 c 0.07687,0.34456 0.155963,0.69099 0.238282,1.03515 l 0.257812,-0.0625 c -0.08181,-0.34203 -0.15957,-0.68523 -0.236328,-1.02929 z m 164.673825,1.47656 c -0.0835,0.34281 -0.16608,0.68502 -0.2539,1.02539 l 0.25586,0.0664 c 0.0884,-0.34281 0.1724,-0.68661 0.25586,-1.0293 z m -164.31445,0.0664 -0.257812,0.0625 c 0.08325,0.34304 0.167196,0.6867 0.255859,1.02929 l 0.255859,-0.0664 c -0.08811,-0.34046 -0.170766,-0.6828 -0.253906,-1.02539 z m 163.92773,1.4707 c -0.0898,0.34121 -0.17739,0.68084 -0.27148,1.01953 l 0.25391,0.0723 c 0.0948,-0.34113 0.18365,-0.68431 0.27343,-1.02539 z m -163.541011,0.0664 -0.25586,0.0684 c 0.08958,0.34144 0.180416,0.68253 0.275391,1.02343 l 0.253906,-0.0723 c -0.09438,-0.33877 -0.183969,-0.67853 -0.273437,-1.01953 z m 163.126951,1.46289 c -0.0961,0.33948 -0.19068,0.67873 -0.29101,1.01562 l 0.25195,0.0762 c 0.10105,-0.3393 0.19691,-0.68015 0.29297,-1.01953 z m -162.710936,0.0664 -0.253906,0.0723 c 0.09587,0.33974 0.191717,0.68045 0.292969,1.01953 l 0.253906,-0.0762 c -0.100622,-0.33698 -0.197229,-0.67634 -0.292969,-1.01563 z m 162.267576,1.45508 c -0.10229,0.33764 -0.20399,0.67477 -0.31054,1.00977 l 0.25195,0.0801 c 0.1073,-0.33736 0.21022,-0.67608 0.3125,-1.01367 z m -161.822263,0.0664 -0.253906,0.0762 c 0.102101,0.33794 0.20501,0.67653 0.3125,1.01367 l 0.251953,-0.0801 c -0.106831,-0.33507 -0.208595,-0.67231 -0.310547,-1.00976 z m 161.351563,1.44726 c -0.10843,0.33568 -0.21735,0.67092 -0.33008,1.00391 l 0.25195,0.084 c 0.11352,-0.3353 0.22164,-0.67015 0.33008,-1.00586 z m -160.88086,0.0664 -0.251953,0.082 c 0.108287,0.33605 0.218346,0.67078 0.332031,1.00586 l 0.25,-0.084 c -0.113003,-0.33307 -0.221971,-0.66842 -0.330078,-1.00391 z m 160.38281,1.4375 c -0.1145,0.3336 -0.22878,0.66717 -0.34765,0.99805 l 0.24804,0.0898 c 0.11969,-0.33312 0.23507,-0.66823 0.34961,-1.00195 z m -159.88281,0.0664 -0.25,0.0859 c 0.114424,0.33406 0.229776,0.6671 0.349609,1 l 0.25,-0.0879 c -0.119135,-0.33096 -0.235404,-0.66463 -0.349609,-0.99804 z m 159.35547,1.42968 c -0.12051,0.33141 -0.24221,0.66157 -0.36719,0.99024 l 0.24805,0.0937 c 0.1258,-0.33082 0.24658,-0.66249 0.36719,-0.99414 z m -158.826173,0.0645 -0.25,0.0898 c 0.120514,0.33197 0.243211,0.6655 0.369141,0.99609 l 0.248046,-0.0957 c -0.125223,-0.32874 -0.246941,-0.65901 -0.367187,-0.99023 z m 158.271483,1.41992 c -0.12646,0.3291 -0.25372,0.65803 -0.38476,0.98437 l 0.24609,0.0977 c 0.13187,-0.3284 0.2601,-0.65684 0.38672,-0.98633 z m -157.716796,0.0645 -0.246093,0.0957 c 0.12656,0.32978 0.25475,0.65815 0.386718,0.98633 l 0.244141,-0.0977 c -0.131263,-0.32643 -0.258532,-0.65545 -0.384766,-0.98438 z M 109.8125,123.6543 c -0.13236,0.32668 -0.26529,0.65264 -0.40234,0.97656 l 0.24414,0.10352 c 0.13787,-0.32587 0.27171,-0.65325 0.40429,-0.98047 z m -156.550781,0.0644 -0.246094,0.0996 c 0.132563,0.32749 0.266351,0.65481 0.404297,0.98047 l 0.244141,-0.10352 c -0.137252,-0.32401 -0.270175,-0.65005 -0.402344,-0.97656 z m 155.943361,1.39844 c -0.13821,0.32416 -0.27887,0.64735 -0.42188,0.96875 l 0.24219,0.10937 c 0.14382,-0.32322 0.28337,-0.6478 0.42188,-0.97265 z m -155.333986,0.0645 -0.244141,0.10352 c 0.138523,0.32509 0.279972,0.64963 0.423828,0.97265 l 0.242188,-0.10742 c -0.143183,-0.32151 -0.283821,-0.64476 -0.421875,-0.96875 z m 154.697266,1.38867 c -0.14401,0.32153 -0.2886,0.64215 -0.4375,0.96094 l 0.23828,0.11133 c 0.14969,-0.32048 0.29701,-0.64246 0.44141,-0.96485 z m -154.060547,0.0625 -0.242188,0.10938 c 0.144442,0.32259 0.291713,0.64261 0.441406,0.96289 l 0.240235,-0.11133 c -0.149053,-0.31891 -0.295564,-0.63958 -0.439453,-0.96094 z m 153.398437,1.37696 c -0.14976,0.31879 -0.3023,0.63704 -0.45703,0.95312 l 0.23828,0.11523 c 0.15549,-0.31761 0.30875,-0.63527 0.45898,-0.95507 z m -152.734375,0.0625 -0.240234,0.11328 c 0.15032,0.31998 0.303532,0.63764 0.458984,0.95507 l 0.238281,-0.11523 c -0.154859,-0.31622 -0.307353,-0.63451 -0.457031,-0.95312 z M 107.2168,129.4375 c -0.15547,0.31595 -0.31216,0.63008 -0.47266,0.94336 l 0.23438,0.12109 c 0.1612,-0.31466 0.32052,-0.63015 0.47656,-0.94726 z M -44.138672,129.5 -44.375,129.61719 c 0.156159,0.31726 0.315436,0.63278 0.476563,0.94726 l 0.234375,-0.12109 c -0.160596,-0.31345 -0.31919,-0.6276 -0.47461,-0.94336 z m 150.640622,1.35156 c -0.16112,0.313 -0.32599,0.62515 -0.49218,0.93555 l 0.23437,0.125 c 0.16684,-0.31161 0.33038,-0.62513 0.49219,-0.93945 z m -149.923825,0.0625 -0.234375,0.1211 c 0.161958,0.31444 0.325478,0.62606 0.492188,0.9375 l 0.234375,-0.125 c -0.16626,-0.3106 -0.331073,-0.62079 -0.492188,-0.9336 z m 149.181645,1.33789 c -0.16674,0.30994 -0.336,0.62029 -0.50782,0.92774 l 0.23047,0.1289 c 0.17238,-0.30845 0.34419,-0.61827 0.51172,-0.92968 z m -148.439457,0.0625 -0.232422,0.125 c 0.167718,0.3115 0.337572,0.62139 0.509765,0.92969 l 0.232422,-0.12891 c -0.171845,-0.30767 -0.343,-0.61605 -0.509765,-0.92578 z m 147.673827,1.32617 c -0.17231,0.30678 -0.34803,0.6116 -0.52539,0.91602 l 0.22852,0.13281 c 0.17782,-0.30521 0.35412,-0.61153 0.52734,-0.91992 z m -146.906249,0.0605 -0.230469,0.12891 c 0.173441,0.30845 0.351729,0.61484 0.529297,0.91992 l 0.228515,-0.13281 c -0.177346,-0.3047 -0.354972,-0.60947 -0.527343,-0.91602 z m 146.113279,1.31055 c -0.17783,0.30349 -0.36015,0.60688 -0.54297,0.9082 l 0.22657,0.13672 c 0.18315,-0.30188 0.36605,-0.6049 0.54492,-0.91016 z m -145.318357,0.0606 -0.228516,0.13476 c 0.179128,0.30529 0.362102,0.60643 0.544922,0.9082 l 0.226562,-0.13671 c -0.182758,-0.30167 -0.365036,-0.603 -0.542968,-0.90625 z m 144.499997,1.29882 c -0.18331,0.30011 -0.37041,0.59831 -0.55859,0.89649 l 0.22461,0.14062 c 0.18837,-0.29847 0.37607,-0.59838 0.56055,-0.90039 z m -143.681638,0.0586 -0.226563,0.13867 c 0.184782,0.30201 0.374565,0.60005 0.5625,0.89844 l 0.22461,-0.14063 c -0.188072,-0.2986 -0.377096,-0.59665 -0.560547,-0.89648 z m 142.839848,1.2832 c -0.18875,0.2966 -0.38272,0.59172 -0.57618,0.88672 l 0.22071,0.14453 c 0.19345,-0.29499 0.38807,-0.59002 0.57812,-0.88867 z m -141.996098,0.0586 -0.222656,0.14258 c 0.191188,0.29631 0.382331,0.59369 0.578125,0.88867 l 0.220703,-0.14648 c -0.194385,-0.29286 -0.384841,-0.58824 -0.576172,-0.88477 z m 141.128908,1.26758 c -0.19481,0.29302 -0.3929,0.58391 -0.5918,0.875 l 0.21875,0.15039 c 0.19913,-0.29143 0.39599,-0.58438 0.5918,-0.8789 z m -140.261721,0.0586 -0.21875,0.14648 c 0.196401,0.29313 0.392608,0.58571 0.59375,0.87695 l 0.21875,-0.15039 c -0.19981,-0.28931 -0.397427,-0.58003 -0.59375,-0.87304 z m 139.369141,1.25195 c -0.20169,0.28946 -0.40256,0.57758 -0.60742,0.86328 l 0.21484,0.1543 c 0.20629,-0.28769 0.40772,-0.57778 0.60938,-0.86719 z m -138.474609,0.0566 -0.21875,0.15234 c 0.201595,0.28981 0.404941,0.57782 0.611328,0.86524 l 0.214844,-0.1543 c -0.205142,-0.28569 -0.406115,-0.57389 -0.607422,-0.86328 z m 137.558593,1.23633 c -0.206564,0.28576 -0.412906,0.57155 -0.623047,0.85351 l 0.212891,0.15821 c 0.211476,-0.28376 0.41824,-0.56944 0.625002,-0.85547 z m -136.642578,0.0566 -0.214843,0.15625 c 0.206766,0.28634 0.415428,0.57194 0.626953,0.85547 l 0.21289,-0.15821 c -0.210381,-0.28199 -0.418721,-0.56785 -0.625,-0.85351 z m 135.703125,1.2207 c -0.211432,0.28196 -0.423346,0.56363 -0.638672,0.8418 l 0.208985,0.16211 c 0.216557,-0.27976 0.430731,-0.56319 0.642578,-0.84571 z m -134.761718,0.0547 -0.212891,0.16016 c 0.211907,0.28274 0.426025,0.56419 0.642578,0.84375 l 0.208984,-0.16211 c -0.215527,-0.27823 -0.427445,-0.55996 -0.638671,-0.8418 z m 133.798828,1.20508 c -0.216284,0.27805 -0.433882,0.55382 -0.654297,0.82812 l 0.207031,0.16602 c 0.221527,-0.27569 0.439345,-0.55318 0.65625,-0.83203 z m -132.835938,0.0547 -0.208984,0.16211 c 0.217013,0.27903 0.436735,0.55653 0.658203,0.83204 l 0.207031,-0.16602 c -0.220579,-0.2744 -0.440105,-0.55021 -0.65625,-0.82813 z m 131.849609,1.18555 c -0.221108,0.27405 -0.444513,0.54602 -0.669921,0.81641 l 0.205078,0.16992 c 0.226382,-0.27155 0.449944,-0.54525 0.671875,-0.82031 z m -130.861328,0.0547 -0.207031,0.16601 c 0.22208,0.27519 0.447567,0.54697 0.673828,0.81836 l 0.203125,-0.16796 c -0.225535,-0.27053 -0.448894,-0.54253 -0.669922,-0.81641 z m 129.853516,1.16797 c -0.225902,0.26993 -0.455242,0.53828 -0.685547,0.80469 l 0.201172,0.17382 c 0.231117,-0.26734 0.460583,-0.53745 0.6875,-0.80859 z m -128.845703,0.0527 -0.201172,0.16992 c 0.227108,0.27121 0.456574,0.54137 0.6875,0.8086 L -32.191406,147.5 c -0.230394,-0.26661 -0.459675,-0.53495 -0.685547,-0.80469 z M 94.9375,147.84766 c -0.230658,0.26571 -0.464116,0.52862 -0.699219,0.79101 l 0.197266,0.17578 c 0.235723,-0.26308 0.469308,-0.52782 0.701172,-0.79492 z m -126.78125,0.0508 -0.199219,0.17383 c 0.232094,0.26711 0.465722,0.53192 0.701172,0.79492 l 0.197266,-0.17774 c -0.235151,-0.26266 -0.468546,-0.52553 -0.699219,-0.79101 z m 125.728516,1.13281 c -0.235371,0.26138 -0.475045,0.52095 -0.714844,0.7793 l 0.195312,0.17968 c 0.240191,-0.25876 0.478076,-0.51832 0.714844,-0.78125 z m -124.673828,0.0527 -0.197266,0.17579 c 0.237039,0.26289 0.476981,0.52251 0.716797,0.78125 l 0.193359,-0.17969 c -0.239801,-0.25872 -0.477461,-0.51624 -0.71289,-0.77735 z m 123.597656,1.11329 c -0.240039,0.25693 -0.482171,0.50938 -0.726563,0.76367 l 0.189453,0.18359 c 0.244505,-0.2544 0.488839,-0.50894 0.730469,-0.76758 z m -122.523438,0.0488 -0.191406,0.18164 c 0.242193,0.25702 0.484769,0.51342 0.730469,0.76758 l 0.189453,-0.18359 c -0.244674,-0.2531 -0.486855,-0.50917 -0.728516,-0.76563 z m 121.427735,1.09571 c -0.244706,0.25236 -0.493293,0.50179 -0.742188,0.75195 l 0.1875,0.18555 c 0.248721,-0.24999 0.499637,-0.49975 0.746094,-0.75391 z m -120.330078,0.0488 -0.189454,0.18555 c 0.246924,0.25199 0.494867,0.50455 0.746094,0.75391 l 0.185547,-0.1875 c -0.249535,-0.24768 -0.495309,-0.50001 -0.742187,-0.75196 z m 119.214843,1.07422 c -0.251446,0.24748 -0.503954,0.49509 -0.757812,0.73828 l 0.183593,0.19141 c 0.255633,-0.24489 0.508373,-0.49281 0.759766,-0.74023 z M -27.5,152.51367 l -0.185547,0.18945 c 0.251407,0.24783 0.504084,0.49563 0.759766,0.74024 l 0.183594,-0.19141 c -0.254136,-0.24313 -0.50676,-0.4908 -0.757813,-0.73828 z m 116.958984,1.05469 c -0.255515,0.24295 -0.511141,0.48606 -0.769531,0.72461 l 0.179688,0.19336 c 0.260015,-0.24006 0.515693,-0.48335 0.771484,-0.72656 z m -115.820312,0.0488 -0.181641,0.1914 c 0.255858,0.24351 0.513424,0.4848 0.773438,0.72461 l 0.179687,-0.19336 c -0.258626,-0.23853 -0.516259,-0.47975 -0.771484,-0.72265 z m 114.662109,1.0332 c -0.259587,0.23831 -0.520393,0.47512 -0.783203,0.70898 l 0.175781,0.19922 c 0.264276,-0.23516 0.525,-0.47405 0.785157,-0.71289 z m -113.501953,0.0469 -0.179687,0.19531 c 0.260266,0.23903 0.522887,0.47596 0.787109,0.71094 l 0.175781,-0.19727 c -0.26301,-0.23389 -0.523825,-0.47076 -0.783203,-0.70898 z m 112.324219,1.01367 c -0.263643,0.23355 -0.529753,0.46618 -0.796875,0.69531 l 0.171875,0.20117 c 0.268412,-0.23023 0.534348,-0.46296 0.798828,-0.69726 z m -111.146484,0.0469 -0.173829,0.19727 c 0.264628,0.23443 0.530525,0.46719 0.798829,0.69726 l 0.171875,-0.20117 c -0.267292,-0.22921 -0.533377,-0.45993 -0.796875,-0.69336 z M 85.925781,156.75 c -0.267667,0.2287 -0.537265,0.45534 -0.808594,0.67969 l 0.167969,0.20312 c 0.272422,-0.22525 0.543746,-0.45201 0.8125,-0.68164 z m -108.75,0.0449 -0.171875,0.20117 c 0.268936,0.22969 0.54025,0.4565 0.8125,0.68164 l 0.167969,-0.20312 c -0.271468,-0.22449 -0.541017,-0.45116 -0.808594,-0.67969 z m 107.533203,0.9707 c -0.271651,0.22373 -0.546834,0.44648 -0.822265,0.66602 l 0.166015,0.20703 c 0.2763,-0.22023 0.551246,-0.44315 0.824219,-0.66797 z m -106.316406,0.0449 -0.167969,0.20507 c 0.273187,0.22483 0.548163,0.44585 0.824219,0.66602 l 0.166016,-0.20703 c -0.275542,-0.21976 -0.550661,-0.44054 -0.822266,-0.66406 z m 105.080078,0.94922 c -0.275585,0.21865 -0.552601,0.43373 -0.832031,0.64843 l 0.160156,0.21094 c 0.280039,-0.21517 0.558804,-0.43246 0.835938,-0.65234 z m -103.84375,0.043 -0.164062,0.20704 c 0.27738,0.21983 0.556227,0.43522 0.835937,0.65039 l 0.16211,-0.20899 c -0.279512,-0.21501 -0.558407,-0.43003 -0.833985,-0.64844 z m 102.589844,0.92774 c -0.279462,0.21347 -0.560425,0.42295 -0.84375,0.63281 l 0.15625,0.21289 c 0.283629,-0.21008 0.568376,-0.4219 0.849609,-0.63672 z m -101.335937,0.041 -0.160157,0.21094 c 0.281516,0.21471 0.566414,0.42461 0.84961,0.63477 l 0.15625,-0.21289 c -0.283377,-0.21029 -0.566213,-0.41965 -0.845703,-0.63282 z m 100.066406,0.9043 c -0.283278,0.20817 -0.570305,0.41412 -0.857422,0.61914 l 0.152344,0.21485 c 0.287059,-0.20499 0.576055,-0.40951 0.861328,-0.61915 z m -98.794922,0.041 L -18,160.93164 c 0.285465,0.2071 0.57006,0.41507 0.859375,0.61914 l 0.152344,-0.2168 c -0.287247,-0.2026 -0.571812,-0.40998 -0.857422,-0.61718 z m 97.505859,0.88281 c -0.289312,0.20203 -0.578346,0.40405 -0.86914,0.60156 l 0.148437,0.21875 c 0.292863,-0.19891 0.58391,-0.4016 0.873047,-0.60351 z m -96.214843,0.0391 -0.152344,0.2168 c 0.289212,0.20224 0.580073,0.40494 0.873047,0.60351 l 0.148437,-0.21875 c -0.291074,-0.19728 -0.580158,-0.39948 -0.86914,-0.60156 z m 94.908203,0.85938 c -0.292695,0.1968 -0.584375,0.39198 -0.878907,0.58398 l 0.144532,0.22266 c 0.296526,-0.1933 0.590009,-0.39102 0.882812,-0.58789 z m -93.601563,0.0371 -0.148437,0.2207 c 0.292903,0.19721 0.586305,0.3929 0.882812,0.58594 l 0.144531,-0.22071 c -0.294781,-0.19191 -0.58656,-0.38909 -0.878906,-0.58593 z m 92.279297,0.83593 c -0.295949,0.19151 -0.592471,0.38182 -0.890625,0.56836 l 0.140625,0.22461 c 0.299977,-0.18768 0.598131,-0.37852 0.894531,-0.57031 z m -90.957031,0.0371 -0.142578,0.22266 c 0.29653,0.19204 0.592661,0.38284 0.892578,0.57031 l 0.140625,-0.22461 c -0.298376,-0.1865 -0.594945,-0.37687 -0.890625,-0.56836 z m 89.61914,0.8125 c -0.299176,0.1861 -0.598731,0.36974 -0.90039,0.55078 l 0.134765,0.22657 c 0.303303,-0.18204 0.604367,-0.36618 0.904297,-0.55274 z m -88.279297,0.0352 -0.140625,0.22461 c 0.300086,0.18672 0.60305,0.37087 0.90625,0.55273 l 0.134766,-0.22656 c -0.301859,-0.18106 -0.601422,-0.36475 -0.900391,-0.55078 z m 86.923829,0.78711 c -0.302359,0.18058 -0.605104,0.35964 -0.910157,0.53515 l 0.132813,0.22852 c 0.306505,-0.17635 0.610676,-0.35396 0.914062,-0.53516 z m -85.56836,0.0352 -0.136719,0.22852 c 0.303563,0.18128 0.609658,0.35894 0.916016,0.53516 l 0.130859,-0.22852 c -0.305233,-0.17557 -0.607955,-0.35469 -0.910156,-0.53516 z m 84.199219,0.76368 c -0.305485,0.17496 -0.611586,0.34764 -0.919922,0.51757 l 0.126953,0.23047 c 0.309583,-0.17062 0.61902,-0.34383 0.925781,-0.51953 z m -82.8300781,0.0332 -0.1308594,0.23047 c 0.3069568,0.17572 0.6144404,0.34703 0.9238281,0.51758 l 0.1289063,-0.23047 c -0.3085022,-0.17006 -0.616509,-0.34277 -0.921875,-0.51758 z m 81.4453121,0.73828 c -0.308544,0.16925 -0.618176,0.33567 -0.929687,0.5 l 0.123047,0.23438 c 0.312534,-0.16487 0.625494,-0.33188 0.935547,-0.50196 z m -80.0605465,0.0332 -0.1269531,0.23243 c 0.3102654,0.17004 0.6232611,0.33515 0.9355469,0.5 l 0.1230468,-0.23243 c -0.3116652,-0.16451 -0.6231836,-0.33094 -0.9316406,-0.5 z m 78.6621095,0.71289 c -0.311529,0.16346 -0.624874,0.32374 -0.939453,0.48243 l 0.11914,0.23632 c 0.315359,-0.15908 0.630106,-0.32001 0.94336,-0.48437 z m -77.2617189,0.0312 -0.1230468,0.23438 c 0.3134845,0.16427 0.6283095,0.32525 0.9433593,0.48437 l 0.1191407,-0.23632 c -0.3147244,-0.15896 -0.6279861,-0.31921 -0.9394532,-0.48243 z m 75.8496089,0.6875 c -0.314431,0.15756 -0.631677,0.31183 -0.949218,0.46485 l 0.115234,0.23828 c 0.318053,-0.15327 0.636763,-0.30827 0.953125,-0.4668 z m -74.4374995,0.0312 -0.1191406,0.23633 c 0.3166114,0.15839 0.6354481,0.31147 0.953125,0.46485 l 0.1152344,-0.23828 c -0.317681,-0.15339 -0.6348282,-0.30562 -0.9492188,-0.4629 z m 73.0117185,0.66211 c -0.317245,0.15159 -0.636632,0.29799 -0.957031,0.44532 l 0.111328,0.24023 c 0.320617,-0.14743 0.641564,-0.29467 0.960938,-0.44726 z m -71.5859372,0.0293 -0.1132813,0.23828 c 0.3196013,0.15222 0.6405774,0.29977 0.9609375,0.44727 l 0.1113281,-0.24024 c -0.3205025,-0.14756 -0.6415966,-0.29414 -0.9589843,-0.44531 z m 70.1484372,0.63477 c -0.319967,0.14552 -0.643643,0.28806 -0.966797,0.42968 l 0.107422,0.24219 c 0.323049,-0.14157 0.646464,-0.28311 0.96875,-0.42969 z m -68.7089841,0.0293 -0.109375,0.24024 c 0.3219302,0.14402 0.6455642,0.28951 0.9707031,0.42969 l 0.1054688,-0.24219 c -0.3227697,-0.13915 -0.6447064,-0.28364 -0.9667969,-0.42774 z m 67.2578121,0.60938 c -0.323662,0.13876 -0.649104,0.27557 -0.974609,0.41015 l 0.101562,0.24415 c 0.326489,-0.13499 0.651778,-0.27287 0.976563,-0.41211 z m -65.8066402,0.0273 -0.1035157,0.24219 c 0.3246288,0.13828 0.64890054,0.27816 0.97656252,0.41211 l 0.1015625,-0.24609 c -0.32542922,-0.13304 -0.65013152,-0.27 -0.97460932,-0.40821 z m 64.3437502,0.58203 c -0.327196,0.13207 -0.65275,0.26552 -0.980469,0.39258 l 0.0957,0.2461 c 0.330123,-0.128 0.65732,-0.26058 0.984375,-0.39258 z m -62.88085963,0.0273 -0.09960937,0.24414 c 0.32722655,0.1324 0.65626333,0.26488 0.9863281,0.39258 l 0.095703,-0.24805 c -0.32796325,-0.12688 -0.65561416,-0.25644 -0.98242173,-0.38867 z m 61.40624963,0.55468 c -0.329402,0.12605 -0.658136,0.25222 -0.988281,0.37305 l 0.0918,0.24805 c 0.332428,-0.12167 0.662648,-0.24695 0.992187,-0.37305 z m -59.9316403,0.0254 -0.09375,0.24804 c 0.3297186,0.12642 0.6598389,0.25164 0.9921876,0.37305 l 0.091797,-0.25 c -0.3303734,-0.12069 -0.6611669,-0.24493 -0.9902346,-0.37109 z m 58.4472653,0.52929 c -0.331541,0.11995 -0.66365,0.23895 -0.996093,0.35352 l 0.08789,0.25 c 0.334613,-0.11532 0.666132,-0.23343 0.998047,-0.35352 z m -56.9609371,0.0234 -0.089844,0.25 c 0.3321004,0.12033 0.6654855,0.23843 1,0.35352 l 0.085937,-0.25 c -0.3326604,-0.11445 -0.6648464,-0.2335 -0.996093,-0.35352 z m 55.4648441,0.50195 c -0.333602,0.11377 -0.665385,0.22768 -1,0.33594 l 0.08008,0.25 c 0.33668,-0.10893 0.671681,-0.22002 1.005859,-0.33398 z m -53.9687504,0.0234 -0.085937,0.25 c 0.3343681,0.11416 0.6692957,0.22525 1.0058594,0.33398 l 0.082031,-0.25 c -0.3348243,-0.10817 -0.6686133,-0.22017 -1.0019534,-0.33398 z m 52.4648434,0.47461 c -0.335576,0.10752 -0.671151,0.21254 -1.007812,0.31445 l 0.07617,0.25391 c 0.33863,-0.10251 0.675394,-0.20865 1.011718,-0.31641 z m -50.9609371,0.0215 -0.080078,0.25196 c 0.3365181,0.1079 0.6732216,0.21211 1.0117188,0.31445 l 0.078125,-0.25195 c -0.3368646,-0.10185 -0.6744269,-0.20693 -1.0097658,-0.31446 z m 49.4472651,0.44727 c -0.337458,0.10121 -0.675091,0.19939 -1.013671,0.29492 l 0.07031,0.25586 c 0.340464,-0.0961 0.68118,-0.1954 1.019531,-0.29687 z m -47.9316401,0.0195 -0.076172,0.25391 c 0.3385471,0.10158 0.6772619,0.199 1.0175781,0.29492 l 0.072266,-0.25391 c -0.3387804,-0.0955 -0.6764327,-0.19373 -1.0136721,-0.29492 z M 54,173.75195 c -0.339243,0.0948 -0.679159,0.18629 -1.019531,0.27539 l 0.06641,0.25782 c 0.342182,-0.0896 0.683183,-0.18418 1.023437,-0.2793 z m -44.8847656,0.0176 -0.072266,0.25586 c 0.3404521,0.0952 0.6814156,0.18789 1.0234376,0.27734 l 0.06836,-0.25586 c -0.3405709,-0.0891 -0.6804946,-0.18254 -1.0195316,-0.27734 z m 43.3535156,0.39258 c -0.340926,0.0884 -0.681402,0.17517 -1.023438,0.25781 l 0.06055,0.25586 c 0.343786,-0.0831 0.687266,-0.16911 1.029297,-0.25781 z m -41.822266,0.0176 -0.06641,0.25586 c 0.342231,0.0888 0.685682,0.17485 1.029297,0.25781 l 0.06055,-0.25781 c -0.342232,-0.0826 -0.682707,-0.1675 -1.023438,-0.25586 z m 40.283203,0.36328 c -0.342505,0.082 -0.683775,0.16214 -1.027343,0.23828 l 0.05664,0.25781 c 0.345276,-0.0765 0.689524,-0.15605 1.033203,-0.23828 z m -38.74414,0.0156 -0.0625,0.25782 c 0.343879,0.0823 0.688106,0.16185 1.033203,0.23828 l 0.05859,-0.25977 c -0.343765,-0.0761 -0.686982,-0.15444 -1.029297,-0.23633 z m 37.199219,0.33594 c -0.343978,0.0754 -0.688235,0.14916 -1.033204,0.21875 l 0.05273,0.25977 c 0.346652,-0.0699 0.691913,-0.145 1.037109,-0.22071 z m -35.654297,0.0156 -0.05664,0.25781 c 0.345397,0.0757 0.690641,0.14889 1.03711,0.21875 l 0.05273,-0.25977 c -0.345166,-0.0696 -0.689413,-0.14142 -1.033203,-0.21679 z m 34.103515,0.30664 c -0.345342,0.0689 -0.690874,0.1362 -1.037109,0.19922 l 0.04687,0.25976 c 0.347915,-0.0633 0.694436,-0.13009 1.041016,-0.19922 z m -32.550781,0.0137 -0.05273,0.25976 c 0.34678,0.0692 0.695239,0.13402 1.042968,0.19727 l 0.04687,-0.25977 c -0.346432,-0.063 -0.691954,-0.12844 -1.037109,-0.19726 z m 30.992188,0.2793 c -0.346598,0.0623 -0.69365,0.12132 -1.041016,0.17773 l 0.04297,0.26172 c 0.349065,-0.0567 0.697095,-0.11717 1.044922,-0.17969 z m -29.435547,0.0117 -0.04687,0.26172 c 0.348027,0.0625 0.697995,0.12112 1.046875,0.17774 l 0.04102,-0.26172 c -0.347562,-0.0564 -0.694607,-0.1155 -1.041015,-0.17774 z m 27.873047,0.25196 c -0.347745,0.0557 -0.696563,0.10842 -1.044922,0.1582 l 0.03711,0.26172 c 0.350102,-0.05 0.699893,-0.10429 1.048828,-0.16016 z m -26.308594,0.01 -0.04297,0.26172 c 0.349137,0.0559 0.69891,0.10826 1.048828,0.1582 l 0.03711,-0.26171 c -0.348555,-0.0498 -0.695419,-0.10258 -1.042969,-0.15821 z m 24.740234,0.22266 c -0.348782,0.049 -0.697662,0.0955 -1.046875,0.13867 l 0.0332,0.26367 c 0.351023,-0.0434 0.700879,-0.0914 1.050782,-0.14062 z m -23.171875,0.01 -0.03711,0.26172 c 0.350107,0.0492 0.699937,0.0954 1.050781,0.13868 l 0.0332,-0.26172 c -0.349407,-0.0431 -0.698294,-0.0897 -1.046875,-0.13868 z m 21.59961,0.19336 c -0.349713,0.0423 -0.698901,0.0827 -1.048829,0.11914 l 0.02734,0.26368 c 0.35183,-0.0367 0.703962,-0.0767 1.054688,-0.11914 z m -20.029297,0.008 -0.03125,0.26367 c 0.350935,0.0425 0.703031,0.0826 1.054687,0.11914 l 0.02734,-0.26367 c -0.350118,-0.0364 -0.70128,-0.0768 -1.050781,-0.11914 z m 18.455078,0.16601 c -0.350538,0.0356 -0.702233,0.0698 -1.052735,0.0996 l 0.02344,0.26367 c 0.35252,-0.03 0.70524,-0.0639 1.056641,-0.0996 z m -16.878906,0.008 -0.02734,0.26172 c 0.351617,0.0358 0.704288,0.0698 1.05664,0.0996 l 0.02148,-0.26367 c -0.350688,-0.0297 -0.700467,-0.062 -1.050781,-0.0977 z m 15.300781,0.13672 c -0.351262,0.0288 -0.703753,0.057 -1.054688,0.0801 l 0.01758,0.26367 c 0.353094,-0.0233 0.706672,-0.0512 1.058594,-0.0801 z m -13.722656,0.006 -0.02148,0.26367 c 0.352152,0.029 0.705662,0.055 1.058594,0.0781 L 25.75,176.61133 c -0.351116,-0.023 -0.701714,-0.0492 -1.052734,-0.0781 z m 12.140625,0.10742 c -0.351888,0.022 -0.70346,0.0441 -1.054688,0.0605 l 0.01367,0.26367 c 0.353551,-0.0166 0.706312,-0.0366 1.058594,-0.0586 z m -10.558594,0.006 -0.01758,0.26368 c 0.352531,0.0222 0.705199,0.0422 1.058593,0.0586 l 0.01367,-0.26367 c -0.351403,-0.0163 -0.703062,-0.0365 -1.054687,-0.0586 z m 8.976562,0.0801 c -0.352424,0.0151 -0.703305,0.0292 -1.054687,0.0391 l 0.0059,0.26368 c 0.353894,-0.01 0.708078,-0.024 1.060547,-0.0391 z m -7.394531,0.002 -0.01172,0.26367 c 0.352748,0.0153 0.706808,0.0293 1.060547,0.0391 l 0.0059,-0.26367 c -0.351551,-0.01 -0.702555,-0.0238 -1.054688,-0.0391 z m 5.810547,0.0527 c -0.352884,0.008 -0.705244,0.0162 -1.056641,0.0195 l 0.0039,0.26563 c 0.354125,-0.003 0.70613,-0.0135 1.058593,-0.0215 z m -4.226563,0.002 -0.0059,0.26367 c 0.352788,0.008 0.706578,0.0164 1.060547,0.0195 l 0.002,-0.26563 c -0.35156,-0.003 -0.704087,-0.009 -1.056641,-0.0176 z m 1.583985,0.0234 v 0.26367 c 0.352629,10e-4 0.706458,0.003 1.060547,0 l -0.0039,-0.26367 c -0.351432,0.003 -0.703744,0.001 -1.05664,0 z"
       id="path1749" /></g></svg>
